<svg xmlns="http://www.w3.org/2000/svg" width="312.69" height="258.745" viewBox="0 0 82.733 68.459"><defs><filter id="a" color-interpolation-filters="sRGB"><feFlood result="flood" flood-color="#000" flood-opacity=".498"/><feComposite result="composite1" operator="in" in2="SourceGraphic" in="flood"/><feGaussianBlur result="blur" stdDeviation=".9" in="composite1"/><feOffset result="offset"/><feComposite result="composite2" operator="atop" in2="offset" in="offset"/></filter></defs><g fill="#eee" font-weight="400" font-family="League Gothic" letter-spacing="0" word-spacing="0"><g filter="url(#a)" transform="translate(-26.44 -127.589)"><path d="M33.34 147.7v-14.25h2.1v12.32h2.77v1.94zm5.72 0v-14.25h2.1v14.26zm9.1-9.13h-2.1v-2.2q0-.1-.03-.28 0-.2-.17-.48-.18-.3-.5-.3t-.5.28q-.2.25-.2.5V145.25q0 .18.2.47.16.3.5.3t.5-.25q.17-.27.17-.52l.02-.28v-2.58h-.83v-1.76h2.93v7.1H46.9l-.25-.67q-.66.83-1.63.83-.73 0-1.28-.3-.52-.34-.75-.78-.23-.45-.34-.9-.1-.46-.1-.77v-8.72q0-.12.02-.33.02-.22.15-.74.16-.53.4-.94.28-.4.84-.74.6-.33 1.38-.33.8 0 1.36.32.6.3.85.76.27.45.4.9.16.46.18.8l.02.3zm5.23 9.14v-6.2h-1.64v6.2h-2.1v-14.25h2.1v5.9h1.63v-5.9h2.1v14.26zm4.9-12.1h-1.98v-2.15h6.05v2.15H60.4v12.1h-2.1zm8.87 5.36l-.97 6.75h-1.63l-1.92-14.25h1.94l.83 7.4.04.48h.15l.06-.47.9-7.4h1.5l.9 7.4.06.47h.15l.03-.47.84-7.4H72l-1.9 14.25h-1.64l-.97-6.74-.13-.84h-.08zM73 147.7v-14.25h4.8v2.15h-2.7v3.75h1.95v2.3H75.1v3.9h2.7v2.16zm5.96 0v-14.25h2.1v14.26zm9.1-9.13h-2.1v-2.2q0-.1-.02-.28 0-.2-.18-.48-.17-.3-.5-.3-.33 0-.5.28-.18.25-.18.5l-.02.28v8.86q.02.18.2.47.17.3.5.3t.5-.25q.18-.27.18-.52l.02-.28v-2.58h-.84v-1.76h2.93v7.1H86.8l-.24-.67q-.66.83-1.63.83-.74 0-1.28-.3-.53-.34-.76-.78-.22-.45-.34-.9-.1-.46-.1-.77v-8.72q0-.12.02-.33.02-.22.16-.74.15-.53.4-.94.28-.4.84-.74.58-.33 1.38-.33.8 0 1.36.32.58.3.83.76.27.45.4.9.16.46.18.8l.02.3zm5.24 9.14v-6.2h-1.63v6.2h-2.1v-14.25h2.1v5.9h1.63v-5.9h2.1v14.26zm4.9-12.1h-1.98v-2.15h6.06v2.15h-1.98v12.1h-2.1z" style="-inkscape-font-specification:'League Gothic'" font-size="19.403"/><path d="M35.16 161.37H33.5l1.76-11.67h2.1l1.75 11.67h-1.65l-.32-2.38h-1.65zm1.73-4.2l-.5-3.67-.05-.3h-.1l-.04.3-.48 3.68zm2.88-4.86q0-1.07.56-1.88.55-.83 1.68-.84.73-.02 1.24.27.5.28.73.8.23.48.32.98.1.47.1 1.04l-1.7.16q0-1.68-.67-1.68-.6.02-.6 1.16 0 .15.05.33.03.15.08.3.04.12.14.33.1.2.16.3.06.1.2.35l.22.33.26.38.25.36.82 1.24q.24.38.5 1.08.3.7.3 1.28 0 2.94-2.38 2.94-.64 0-1.12-.2-.46-.2-.73-.48-.26-.3-.42-.78-.14-.48-.2-.9-.04-.45-.04-1.04l1.7-.16q0 2 .8 2 .7 0 .7-1.3 0-.22-.07-.46-.06-.24-.25-.57-.18-.32-.27-.48l-.42-.6q-.3-.46-.38-.58-.5-.74-.8-1.22-.28-.48-.53-1.14-.24-.68-.24-1.27zm6.73-2.6l.87 3.73.04.12h.04l.05-.12.85-3.73h1.68l-1.74 6.7v4.97h-1.73v-4.97l-1.74-6.7zm7.75 11.67l-1.66-6.08-.16-.55h-.1v6.62H50.8V149.7h1.52l1.67 6.08.14.54h.1v-6.62h1.58v11.67zm5.65-4h1.6v1.6q0 .1-.02.28 0 .17-.14.62-.1.42-.33.76-.2.33-.68.6-.46.27-1.1.27t-1.13-.25q-.47-.27-.7-.64-.2-.35-.33-.72-.1-.38-.13-.63v-7.15q0-.1 0-.27.02-.17.13-.6.13-.45.33-.78.23-.33.7-.6.46-.27 1.1-.27.66 0 1.12.27.48.25.7.62.2.36.32.74.13.38.14.65l.02.25v1.6h-1.6v-1.6q-.02 0 0-.08 0-.1-.04-.22-.03-.13-.1-.26-.04-.12-.18-.2-.13-.1-.33-.1-.27 0-.43.22-.15.2-.16.42l-.02.22v6.87q0 .1.02.24t.16.4q.16.23.43.23.3 0 .47-.2.18-.23.18-.45v-.2zm5.68 4v-5.08h-1.34v5.07h-1.7V149.7h1.7v4.83h1.33v-4.83h1.72v11.67zm7.77 0h-1.7l-.9-4.92h-.46v4.92h-1.73V149.7h1.72q2.9 0 2.9 3.37 0 2-.94 2.65zm-1.92-7.27q.13-.38.13-.97 0-.58-.13-.96-.1-.4-.35-.53-.22-.16-.4-.2-.15-.04-.4-.04v3.46q.25 0 .4-.03.18-.05.4-.2.24-.15.35-.53zm7.34 4.88q0 .1-.02.27 0 .17-.14.62-.1.42-.32.76-.2.33-.7.6-.45.27-1.1.27t-1.12-.25q-.46-.27-.7-.64-.2-.35-.32-.72-.1-.38-.13-.63v-7.15q0-.1 0-.27.03-.17.14-.6.13-.45.33-.78.23-.33.7-.6.46-.27 1.1-.27.66 0 1.12.27.47.25.68.62.22.36.33.74.14.38.15.65l.02.25zm-1.72-6.88q0-.1 0-.24 0-.14-.15-.38t-.42-.24-.4.23q-.15.2-.15.4l-.02.23v7.1q.03.16.17.4.14.23.4.23t.43-.2q.14-.23.14-.45v-.2zm6.35 9.27l-1.67-6.08-.14-.55h-.1v6.62H79.9V149.7h1.52l1.67 6.08.15.54h.1v-6.62h1.57v11.67zm7.24-2.4q0 .1 0 .27-.03.18-.15.62-.12.43-.35.77-.2.33-.68.6-.46.27-1.1.27-.66 0-1.14-.25-.46-.27-.68-.64-.2-.35-.33-.72-.12-.38-.13-.63l-.03-.27v-6.88q0-.1.02-.27 0-.17.12-.6.12-.45.33-.78.22-.33.68-.6.48-.27 1.13-.27t1.1.27q.5.25.7.62.2.36.33.74.1.38.13.65v.25zm-1.7-6.87q0-.1-.03-.24 0-.14-.13-.38-.14-.24-.4-.24t-.42.23q-.15.2-.15.4v7.33q0 .16.15.4.14.23.4.23t.42-.2q.14-.23.14-.45l.03-.2zm5.7-2.4h1.7v9.28q0 .1 0 .27-.02.17-.15.62-.12.42-.34.76-.2.33-.68.6-.46.27-1.1.27-.66 0-1.14-.25-.46-.27-.68-.64-.2-.35-.34-.72-.1-.38-.12-.63l-.02-.27v-9.27h1.72v9.5q0 .16.15.4.15.23.42.23t.4-.2q.15-.23.15-.45l.02-.2zm2.84 2.6q0-1.07.56-1.88.55-.83 1.68-.84.73-.02 1.24.27.5.28.73.8.23.48.32.98.1.47.1 1.04l-1.68.16q0-1.68-.7-1.68-.57.02-.57 1.16 0 .15.03.33.03.15.08.3.04.12.14.33.1.2.16.3.06.1.2.35l.23.33.26.38.25.36.83 1.24q.23.38.5 1.08.3.7.3 1.28 0 2.94-2.4 2.94-.63 0-1.1-.2-.46-.2-.73-.48-.26-.3-.42-.78-.14-.48-.2-.9-.03-.45-.03-1.04l1.68-.16q0 2 .8 2 .7 0 .7-1.3 0-.22-.06-.46-.06-.24-.25-.57-.18-.32-.27-.48l-.4-.6q-.33-.46-.4-.58-.5-.74-.8-1.22-.27-.48-.53-1.14-.24-.68-.24-1.27z" style="-inkscape-font-specification:'League Gothic'" font-size="15.875"/><path d="M36.9 174.2h-.68l-1.03-6.9-.07-.47h-.1v7.37h-1.5v-11h2l.95 5.04.07.58h.03l.07-.58.96-5.03h2v11h-1.5v-7.37H38l-.06.46zm6.57-11h1.6v8.75q0 .1 0 .25-.02.17-.14.58-.1.4-.3.72-.2.32-.66.57-.43.25-1.04.25t-1.06-.24q-.44-.25-.65-.6-.2-.34-.3-.68-.12-.36-.13-.6l-.03-.25v-8.74h1.62v8.97q0 .14.14.36.13.22.4.22t.38-.2q.13-.2.13-.4l.02-.2zm2.78 11v-11h1.62v9.5H50v1.5zm5.37-9.33H50.1v-1.66h4.66v1.67h-1.52v9.34h-1.62zm3.78 9.34v-11H57v11zm2.74-3.32v-1.42h2.17v1.42zm4.26-6h-1.52v-1.67h4.66v1.67h-1.52v9.34H62.4zm6.65 9.33v-4.78H67.8v4.8h-1.62v-11h1.6v4.54h1.27v-4.55h1.6v11zm7.33 0h-1.62l-.84-4.63h-.43v4.64h-1.63v-11h1.62q2.74 0 2.74 3.18 0 1.9-.9 2.5zm-1.8-6.85q.1-.36.1-.9t-.12-.92q-.1-.36-.32-.5-.2-.15-.38-.17-.15-.05-.37-.05v3.27q.2 0 .36-.03.17-.04.38-.18.22-.15.33-.5zm2.7 6.86v-11h3.7v1.67h-2.1v2.9h1.5v1.75h-1.5v3.02H81v1.66zm5.7 0h-1.56l1.66-11h1.97l1.66 11h-1.56l-.3-2.24H83.3zm1.64-3.94l-.47-3.47-.04-.3h-.08l-.05.3-.46 3.46zm7.28-3.2q.03.62.03 1.66t-.03 1.67q0 .62-.1 1.28-.05.64-.2 1-.13.36-.36.7-.22.33-.58.5-.36.15-.82.24-.47.1-1.12.1h-1.28v-11h1.28q.65 0 1.12.08.46.1.82.25.36.15.58.5.23.33.36.68.15.36.2 1.02.1.66.1 1.3zm-2.84-2.23v7.76q.7 0 .9-.3.28-.4.3-2.34v-1.26q0-2.75-.18-3.32-.17-.48-.68-.54-.13 0-.34 0zM93 174.2v-11h3.7v1.67h-2.1v2.9h1.5v1.75h-1.5v3.02h2.1v1.66zm9.04-7.14q.03.62.03 1.66t-.03 1.67q-.02.62-.1 1.28-.05.64-.2 1-.13.36-.36.7-.22.33-.58.5-.36.15-.82.24-.47.1-1.13.1h-1.27v-11h1.27q.66 0 1.13.08.46.1.82.25.36.15.58.5.23.33.36.68.15.36.2 1.02.08.66.1 1.3zm-2.84-2.23v7.76q.68 0 .9-.3.28-.4.3-2.34v-1.26q0-2.75-.2-3.32-.15-.48-.66-.54-.13 0-.34 0z" style="-inkscape-font-specification:'League Gothic'" font-size="14.958"/><path d="M33.73 190.2v-14h4.7v2.1H35.8V182h1.9v2.25h-1.9v3.85h2.64v2.1zm8.55-6.3l1.03-7.7h2l-2.13 14h-2.05l-2.14-14h2l1.03 7.7.1.57h.1zm3.95 6.3v-14h4.7v2.1H48.3V182h1.9v2.25h-1.9v3.85h2.64v2.1zm10.02 0l-2-7.3-.17-.65h-.12v7.94h-1.9v-14h1.84l2 7.3.17.63h.12v-7.94h1.88v14zm4.56-11.9h-1.93v-2.1h5.94v2.1h-1.93v11.9H60.8zm4.74 7.66v-1.8h2.76v1.8zm6.74 4.23h-2.53v-14h1.8q1.9 0 2.83.85.93.83.93 2.85 0 1-.27 1.64-.27.63-1 1.26.06.02.16.1.08.05.33.32.25.25.44.6.2.35.34 1 .17.63.17 1.4 0 3.86-3.2 3.97zm1.05-4.2q0-.76-.15-1.24-.16-.5-.44-.66-.27-.18-.44-.2-.17-.05-.42-.05h-.07v4.3q.7 0 1.02-.28.5-.52.5-1.87zm-.13-4.97q.13-.38.13-.94 0-.56-.13-.94-.14-.38-.3-.55-.14-.18-.4-.26-.28-.1-.4-.1-.08 0-.3 0v3.72h.3q.13-.02.4-.1.26-.1.4-.26.16-.2.3-.57zm4.9 9.16h-2l2.1-14h2.53l2.1 14h-2l-.37-2.87h-1.98zm2.07-5.04l-.6-4.42-.04-.36h-.12l-.05.36-.6 4.42zm3.47-5.85q0-1.28.67-2.25.68-1 2.03-1 .87-.03 1.48.3.62.35.9.96.28.6.4 1.2.1.57.1 1.25l-2.02.2q0-2.03-.8-2.03-.72.02-.72 1.4 0 .17.04.37.04.18.1.36.05.15.17.4.1.23.2.36.06.13.24.42l.27.38.3.45.3.42.98 1.48q.3.46.6 1.3.36.83.36 1.54 0 3.52-2.85 3.52-.76 0-1.34-.23-.54-.23-.86-.58-.3-.36-.5-.93-.17-.58-.23-1.1-.04-.53-.04-1.23l2.02-.2q0 2.4.97 2.4.84 0 .84-1.56 0-.25-.1-.54-.07-.28-.3-.68-.2-.4-.32-.6l-.5-.72q-.37-.55-.45-.68-.6-.9-.95-1.47-.35-.56-.65-1.36-.3-.82-.3-1.53zm6.68 10.9v-14h4.7v2.1H92.4V182h1.9v2.25h-1.9v3.85h2.65v2.1zm11.52-9.1q.04.8.04 2.1t-.04 2.13q-.02.8-.1 1.64-.1.82-.28 1.28-.17.45-.46.9-.28.4-.74.62-.46.2-1.05.3-.58.12-1.42.12h-1.6v-14h1.6q.84 0 1.43.1.6.12 1.06.33.46.2.74.63.3.42.46.87.2.46.27 1.3.1.84.1 1.65zm-3.62-2.85v9.88q.88 0 1.15-.38.36-.5.38-2.97v-1.6q.02-3.5-.23-4.23-.2-.6-.86-.68-.17-.02-.44-.02z" style="-inkscape-font-specification:'League Gothic'" font-size="19.05"/></g><path d="M6.9 20.12V5.86H9v12.32h2.77v1.94zm5.72 0V5.86h2.1v14.26zm9.1-9.14h-2.1v-2.2q0-.1-.03-.28 0-.18-.18-.47-.18-.3-.5-.3t-.5.28q-.2.27-.2.52V17.65q0 .17.2.46.16.3.5.3t.5-.26q.17-.27.17-.52v-2.87h-.82v-1.75h2.93v7.1h-1.23l-.26-.68q-.65.84-1.62.84-.73 0-1.28-.3-.52-.34-.75-.8-.22-.44-.33-.88-.1-.47-.1-.78V8.8q0-.13.02-.34.02-.2.15-.74.15-.54.4-.95.27-.4.84-.74.58-.33 1.37-.33.8 0 1.37.33.58.3.84.76.28.44.4.9.17.45.2.78v.3zm5.23 9.14v-6.2h-1.63v6.2h-2.1V5.86h2.1v5.9h1.63v-5.9h2.1v14.26zm4.9-12.1H29.9V5.85h6.05V8h-1.98v12.12h-2.1zm8.88 5.35l-.97 6.75h-1.63L36.2 5.86h1.95l.84 7.4.03.48h.15l.06-.47.9-7.4h1.5l.9 7.4.06.47h.15l.04-.47.83-7.4h1.94L43.65 20.1h-1.63l-.98-6.75-.1-.84h-.1zm5.84 6.75V5.86h4.8V8h-2.7v3.76h1.94v2.3h-1.93v3.9h2.7v2.16zm5.95 0V5.86h2.1v14.26zm9.1-9.14h-2.1v-2.2q0-.1-.02-.28 0-.18-.18-.47-.17-.3-.5-.3-.33 0-.5.28-.18.27-.18.52l-.02.27v8.86q.02.17.2.46.17.3.5.3t.5-.26q.18-.27.18-.52l.02-.27v-2.6h-.84v-1.75h2.93v7.1h-1.23l-.25-.68q-.66.84-1.63.84-.75 0-1.3-.3-.52-.34-.75-.8-.2-.44-.33-.88-.1-.47-.1-.78V8.8q0-.13.02-.34.02-.2.16-.74.15-.54.4-.95.28-.4.84-.74.58-.33 1.38-.33.8 0 1.36.33.58.3.83.76.28.44.42.9.15.45.17.78v.3zm5.24 9.14v-6.2h-1.63v6.2h-2.1V5.86h2.1v5.9h1.63v-5.9h2.1v14.26zm4.9-12.1h-1.98V5.85h6.06V8h-1.98v12.12h-2.1z" style="-inkscape-font-specification:'League Gothic'" font-size="19.403"/><path d="M8.72 33.78H7.05l1.77-11.66h2.1l1.75 11.66H11l-.3-2.38H9.03zm1.73-4.2l-.5-3.67-.04-.3h-.08l-.05.3-.5 3.7zm2.9-4.86q0-1.08.55-1.9.55-.82 1.68-.83.73-.03 1.24.26.5.28.73.8.24.48.33.98.1.47.1 1.04l-1.7.16q0-1.68-.67-1.68-.58.02-.58 1.16 0 .14.04.32.03.16.08.3.04.13.14.33t.16.3q.06.1.2.35l.22.32.26.38.25.35.8 1.24q.25.4.52 1.1.28.7.28 1.27 0 2.94-2.38 2.94-.64 0-1.12-.18-.46-.2-.73-.5-.25-.3-.4-.77-.15-.48-.2-.9-.05-.45-.05-1.04l1.7-.15q0 2 .8 2 .7 0 .7-1.3 0-.22-.07-.46-.06-.25-.25-.58-.18-.33-.27-.5l-.4-.6q-.32-.45-.4-.57-.5-.74-.78-1.22-.3-.47-.54-1.14-.24-.7-.24-1.28zm6.72-2.6l.86 3.72.04.12H21l.05-.1.86-3.74h1.7l-1.75 6.7v4.96h-1.72V28.8l-1.74-6.7zm7.74 11.66l-1.65-6.08-.15-.54h-.1v6.62h-1.56V22.1h1.52l1.67 6.1.14.54h.1V22.1h1.57v11.66zm5.66-4h1.6v1.6q0 .1-.02.28 0 .17-.14.62-.1.42-.33.76-.2.33-.7.6-.44.27-1.1.27t-1.12-.24q-.46-.27-.7-.64-.2-.36-.32-.73-.1-.4-.13-.64V24.5q0-.08 0-.26.02-.17.13-.6.13-.44.33-.78.23-.33.7-.6.46-.27 1.1-.27.66 0 1.12.26.48.25.7.62.2.36.32.74.13.37.14.64l.02.25v1.62h-1.6v-1.6q-.02 0 0-.1 0-.08-.04-.2-.03-.14-.1-.26-.04-.13-.18-.2-.13-.1-.33-.1-.26 0-.42.22-.15.2-.16.4l-.02.23v6.9q0 .08.02.22t.16.4q.16.22.43.22.32 0 .48-.2.18-.22.18-.45v-.2zm5.67 4V28.7H37.8v5.08h-1.7V22.1h1.7v4.84h1.33V22.1h1.72V33.8zm7.78 0h-1.7l-.9-4.92h-.45v4.92h-1.72V22.1h1.72q2.92 0 2.92 3.38 0 2-.95 2.65zM45 26.5q.12-.37.12-.96 0-.58-.13-.96-.12-.38-.36-.53-.22-.16-.4-.2-.15-.04-.4-.04v3.47q.25 0 .4-.03.18-.04.4-.2.24-.15.35-.53zm7.33 4.9q0 .08-.02.26 0 .17-.13.62-.1.42-.33.76-.2.33-.7.6-.44.27-1.1.27t-1.12-.24q-.46-.27-.7-.64-.2-.36-.32-.73-.1-.4-.13-.64V24.5q0-.08 0-.26.02-.17.13-.6.13-.44.33-.78.23-.33.7-.6.46-.27 1.1-.27.66 0 1.13.26.47.25.68.62.22.36.33.74.13.37.14.64l.03.25zm-1.72-6.9q0-.08 0-.23 0-.14-.14-.38-.15-.24-.42-.24t-.4.22q-.15.2-.15.4l-.03.23v7.12q.02.15.16.4.14.22.4.22t.43-.2q.14-.23.14-.45v-.2zm6.36 9.28L55.3 27.7l-.15-.54h-.1v6.62h-1.57V22.1H55l1.67 6.1.14.54h.1V22.1h1.58v11.66zm7.24-2.4q0 .1 0 .28-.03.17-.15.62-.1.42-.34.76-.2.33-.67.6-.46.27-1.1.27-.66 0-1.14-.24-.47-.27-.7-.64-.2-.36-.32-.73-.12-.4-.13-.64l-.02-.27v-6.9q0-.08.02-.26 0-.17.13-.6.12-.44.33-.78.23-.33.7-.6.47-.27 1.12-.27t1.1.26q.5.25.7.62.2.36.33.74.12.37.14.64v.25zm-1.7-6.87q0-.08-.03-.23 0-.14-.14-.38t-.4-.24-.42.22q-.14.2-.14.4V31.64q0 .15.15.4.15.22.42.22t.4-.2q.16-.23.16-.45v-.2zm5.7-2.4h1.7v9.3q0 .08 0 .26-.02.17-.15.62-.1.42-.33.76-.2.33-.68.6-.46.27-1.1.27-.66 0-1.14-.24-.46-.27-.68-.64-.2-.36-.34-.73-.1-.4-.12-.64l-.02-.27V22.1h1.7v9.5q.03.15.17.4.16.22.43.22t.4-.2q.15-.22.15-.45l.02-.2zm2.84 2.62q0-1.08.56-1.9.56-.82 1.68-.83.73-.03 1.24.26.5.28.73.8.24.48.33.98.1.47.1 1.04l-1.68.16q0-1.68-.7-1.68-.57.02-.57 1.16 0 .14.03.32.03.16.08.3.04.13.14.33t.16.3q.06.1.2.35l.23.32.25.38.26.35.8 1.24q.24.4.5 1.1.3.7.3 1.27 0 2.94-2.38 2.94-.64 0-1.1-.18-.47-.2-.74-.5-.26-.3-.42-.77-.14-.48-.2-.9-.03-.45-.03-1.04l1.7-.15q0 2 .8 2 .7 0 .7-1.3 0-.22-.07-.46-.06-.25-.25-.58-.18-.33-.27-.5l-.4-.6q-.32-.45-.38-.57-.5-.74-.8-1.22-.28-.47-.54-1.14-.24-.7-.24-1.28z" style="-inkscape-font-specification:'League Gothic'" font-size="15.875"/><path d="M10.47 46.62h-.7l-1.02-6.9-.06-.48h-.1v7.38H7.1v-11H9.1l.96 5.03.07.58h.04l.08-.58.95-5.03h1.98v11h-1.5v-7.38h-.1l-.05.46zm6.56-11h1.6v8.74q0 .1 0 .25-.02.18-.14.6-.1.4-.32.7-.2.33-.65.58-.43.25-1.04.25t-1.07-.24q-.44-.26-.65-.6-.2-.35-.3-.7-.12-.35-.13-.6l-.02-.24v-8.74h1.62v8.96q0 .14.15.36.13.22.4.22t.38-.2q.13-.2.13-.4l.03-.2zm2.78 11v-11h1.63v9.5h2.14v1.5zm5.38-9.34h-1.52v-1.66h4.66v1.66H26.8v9.34h-1.62zm3.78 9.34v-11h1.6v11zm2.74-3.32v-1.43h2.17v1.43zm4.26-6.02h-1.52v-1.66h4.66v1.66h-1.52v9.34h-1.62zm6.65 9.34v-4.8h-1.25v4.8h-1.6v-11h1.6v4.55h1.26v-4.55h1.62v11zm7.34 0h-1.62l-.84-4.64h-.43v4.64h-1.62v-11h1.62q2.75 0 2.75 3.17 0 1.88-.9 2.5zm-1.8-6.85q.1-.37.1-.92t-.12-.9q-.1-.37-.32-.5-.2-.15-.38-.18-.15-.05-.37-.05v3.26q.22 0 .37-.03.17-.04.38-.18.22-.15.33-.5zm2.7 6.85v-11h3.7v1.66h-2.1v2.9h1.5v1.75h-1.5v3.02h2.1v1.66zm5.7 0H55l1.66-11h1.97l1.67 11H58.7l-.3-2.25h-1.55zm1.64-3.95l-.47-3.47-.03-.3h-.1l-.04.3-.46 3.47zm7.28-3.2q.03.62.03 1.66t-.04 1.67q0 .63-.1 1.3-.05.63-.2 1-.13.35-.36.7-.22.32-.58.5-.36.14-.82.23-.47.1-1.12.1H61v-11h1.28q.65 0 1.12.08.46.1.82.27.36.15.58.5.23.32.36.68.15.36.2 1 .1.67.1 1.32zm-2.84-2.23V45q.7 0 .9-.3.28-.4.3-2.33V41.1q0-2.74-.18-3.3-.17-.5-.68-.55-.13 0-.34 0zm3.94 9.38v-11h3.7v1.66h-2.1v2.9h1.5v1.75h-1.5v3.02h2.1v1.66zm9.04-7.15q.03.62.03 1.66t-.03 1.67q-.02.63-.1 1.3-.05.63-.2 1-.14.35-.36.7-.22.32-.58.5-.36.14-.82.23-.47.1-1.13.1h-1.26v-11h1.27q.67 0 1.14.08.46.1.82.27.36.15.58.5.23.32.36.68.15.36.2 1 .08.67.1 1.32zm-2.84-2.23V45q.68 0 .9-.3.28-.4.3-2.33V41.1q0-2.74-.2-3.3-.15-.5-.66-.55-.13 0-.34 0z" style="-inkscape-font-specification:'League Gothic'" font-size="14.958"/><path d="M7.3 62.6v-14H12v2.12H9.35v3.67h1.9v2.24h-1.9v3.85H12v2.1zm8.54-6.3l1.03-7.7h2l-2.14 14h-2.05l-2.14-14h2l1.03 7.7.08.6h.1zm3.95 6.3v-14h4.7v2.12h-2.65v3.67h1.9v2.24h-1.9v3.85h2.65v2.1zm10 0l-2-7.3-.16-.64h-.12v7.94h-1.88v-14h1.83l2 7.3.17.64h.1V48.6h1.9v14zm4.57-11.88h-1.94V48.6h5.94v2.12h-1.94V62.6h-2.06zm4.73 7.65v-1.8h2.76v1.8zm6.74 4.23H43.3v-14h1.82q1.9 0 2.82.86.93.83.93 2.85 0 1-.28 1.65-.28.63-1 1.26.05.03.15.1.1.06.34.33.24.25.43.6.2.35.34 1 .16.63.16 1.4 0 3.86-3.2 3.97zm1.05-4.2q0-.75-.16-1.23-.16-.5-.44-.66-.27-.17-.44-.2-.17-.04-.42-.04h-.07v4.3q.68 0 1-.28.52-.52.52-1.87zm-.14-4.96q.13-.38.13-.94 0-.55-.14-.93t-.3-.55q-.14-.2-.4-.27-.28-.1-.4-.1-.08 0-.3 0v3.72h.3q.12-.02.4-.1.26-.1.4-.26.16-.18.3-.56zm4.9 9.16h-2l2.1-14h2.53l2.1 14h-2l-.38-2.86h-1.98zm2.07-5.03l-.6-4.42-.04-.36h-.13l-.06.35-.58 4.42zm3.47-5.85q0-1.3.67-2.26.67-1 2.02-1 .87-.03 1.47.3.6.35.88.96.3.6.4 1.18.12.58.12 1.26l-2.03.2q0-2.03-.8-2.03-.72.02-.72 1.4 0 .17.04.37.04.2.1.37.05.15.17.4.1.23.2.36.06.13.24.42l.26.38.3.46.3.4.98 1.5q.3.45.62 1.3.34.82.34 1.53 0 3.52-2.85 3.52-.76 0-1.33-.22-.55-.25-.87-.6-.3-.36-.5-.93-.17-.57-.23-1.08-.05-.54-.05-1.24l2.02-.2q0 2.4.97 2.4.85 0 .85-1.56 0-.26-.08-.55-.08-.28-.3-.68-.22-.4-.33-.6l-.5-.73q-.38-.55-.45-.68-.62-.9-.96-1.48-.35-.57-.65-1.37-.3-.82-.3-1.53zm6.68 10.88v-14h4.7v2.12h-2.64v3.67h1.9v2.24h-1.9v3.85h2.65v2.1zm11.52-9.1q.04.8.04 2.1 0 1.32-.04 2.14-.02.8-.1 1.64-.1.82-.28 1.28-.17.46-.46.9-.28.4-.74.62-.46.2-1.05.3-.6.12-1.43.12h-1.6v-14h1.6q.84 0 1.43.1.6.13 1.05.34.46.2.74.63.3.42.46.87.2.46.27 1.3.08.84.1 1.66zm-3.62-2.84v9.88q.88 0 1.15-.38.36-.5.38-2.97v-1.6q.03-3.5-.22-4.24-.2-.6-.86-.68-.17-.02-.44-.02z" style="-inkscape-font-specification:'League Gothic'" font-size="19.05"/></g></svg>