<svg xmlns="http://www.w3.org/2000/svg" version="1.1" viewBox="0 0 82.733 68.459" height="258.745" width="312.69"><defs><filter id="a" color-interpolation-filters="sRGB"><feFlood result="flood" flood-color="#000" flood-opacity=".498"/><feComposite result="composite1" operator="in" in2="SourceGraphic" in="flood"/><feGaussianBlur result="blur" stdDeviation=".9" in="composite1"/><feOffset result="offset" dy="0" dx="0"/><feComposite result="composite2" operator="atop" in2="offset" in="offset"/></filter></defs><g fill="#eee" fill-opacity="1" font-style="normal" font-weight="400" font-family="League Gothic" letter-spacing="0" word-spacing="0" stroke="none" stroke-width=".265" font-variant="normal" font-stretch="normal"><g filter="url(#a)" transform="translate(-26.44 -127.589)"><g style="line-height:1.25" aria-label="LIGHTWEIGHT" font-size="19.403"><path style="-inkscape-font-specification:'League Gothic'" d="M33.335 147.71v-14.261h2.095v12.32h2.775v1.94zM39.057 147.71v-14.261h2.095v14.26zM48.147 138.571h-2.095v-2.192q0-.117-.02-.291 0-.175-.174-.466-.175-.291-.505-.291t-.504.271q-.175.253-.175.505l-.02.272v8.866q.02.175.195.466.174.291.504.291t.505-.252q.174-.272.174-.524l.02-.271v-2.581h-.835v-1.766h2.93v7.102h-1.242l-.252-.68q-.66.835-1.63.835-.737 0-1.28-.31-.524-.33-.757-.777-.214-.446-.33-.892-.097-.466-.097-.776v-8.731q0-.117.02-.33.019-.214.155-.738.155-.543.407-.95.272-.408.834-.738.583-.33 1.378-.33.796 0 1.358.33.582.31.835.757.271.446.407.912.155.446.175.776l.019.31zM53.393 147.71v-6.21h-1.63v6.21h-2.095v-14.261h2.095v5.898h1.63v-5.898h2.096v14.26zM58.3 135.602h-1.98v-2.153h6.054v2.153h-1.98v12.108H58.3zM67.174 140.958l-.97 6.752h-1.63l-1.92-14.261h1.94l.834 7.412.039.465h.155l.058-.465.893-7.412h1.513l.893 7.412.058.465h.155l.039-.465.834-7.412h1.94l-1.92 14.26h-1.63l-.97-6.751-.117-.835h-.077zM73.012 147.71v-14.261h4.792v2.153h-2.697v3.745h1.94v2.29h-1.94v3.92h2.697v2.153zM78.961 147.71v-14.261h2.096v14.26zM88.052 138.571h-2.096v-2.192q0-.117-.02-.291 0-.175-.174-.466-.175-.291-.504-.291-.33 0-.505.271-.175.253-.175.505l-.019.272v8.866q.02.175.194.466.175.291.505.291t.504-.252q.175-.272.175-.524l.02-.271v-2.581h-.835v-1.766h2.93v7.102H86.81l-.252-.68q-.66.835-1.63.835-.738 0-1.28-.31-.525-.33-.758-.777-.213-.446-.33-.892-.096-.466-.096-.776v-8.731q0-.117.019-.33.02-.214.155-.738.155-.543.408-.95.271-.408.834-.738.582-.33 1.378-.33.795 0 1.358.33.582.31.834.757.272.446.408.912.155.446.174.776l.02.31zM93.298 147.71v-6.21h-1.63v6.21h-2.096v-14.261h2.096v5.898h1.63v-5.898h2.095v14.26zM98.204 135.602h-1.98v-2.153h6.054v2.153H100.3v12.108h-2.095z"/></g><g style="line-height:1.25" aria-label="ASYNCHRONOUS" font-size="15.875"><path style="-inkscape-font-specification:'League Gothic'" d="M35.161 161.372h-1.667l1.762-11.668h2.096l1.762 11.668h-1.667l-.317-2.38h-1.651zm1.73-4.19l-.492-3.684-.047-.301h-.096l-.047.301-.492 3.683zM39.781 152.308q0-1.08.556-1.89.556-.825 1.683-.84.73-.017 1.238.27.508.285.73.793.238.492.334.984.095.476.095 1.048l-1.683.159q0-1.683-.683-1.683-.587.016-.587 1.159 0 .143.032.317.032.159.08.302.047.127.142.333.095.19.159.302.063.11.206.35l.222.317.254.38.254.35.81 1.238q.238.381.508 1.08.286.698.286 1.285 0 2.937-2.381 2.937-.635 0-1.112-.19-.46-.207-.73-.492-.254-.302-.413-.778-.143-.476-.19-.905-.048-.445-.048-1.032l1.683-.159q0 1.985.81 1.985.698 0 .698-1.286 0-.222-.063-.46-.064-.239-.254-.572-.175-.333-.27-.492l-.413-.603q-.318-.46-.381-.572-.508-.746-.794-1.222-.285-.477-.54-1.143-.238-.683-.238-1.27zM46.508 149.704l.858 3.73.047.112h.032l.048-.111.857-3.73h1.683l-1.747 6.698v4.97h-1.714v-4.97l-1.746-6.699zM54.252 161.372l-1.667-6.08-.143-.54h-.095v6.62h-1.571v-11.668H52.3l1.666 6.08.143.54h.096v-6.62h1.571v11.668zM59.896 157.372H61.5v1.603q0 .095-.016.27-.016.175-.143.62-.111.428-.334.761-.206.334-.682.603-.46.27-1.111.27t-1.128-.254q-.46-.27-.682-.635-.207-.365-.334-.73-.11-.38-.127-.635l-.015-.27v-6.874q0-.095.015-.27.016-.174.127-.603.127-.444.334-.778.222-.333.682-.603.477-.27 1.128-.27.65 0 1.11.27.477.254.683.62.223.364.334.745.127.365.143.635l.016.254v1.604h-1.604V152.1q-.016 0 0-.08.016-.094-.032-.221-.031-.127-.095-.254-.047-.127-.19-.207-.127-.095-.334-.095-.27 0-.428.222-.143.207-.159.413l-.016.222v6.874q0 .095.016.238t.159.381q.158.238.428.238.318 0 .477-.206.174-.222.174-.445v-.206zM65.575 161.372v-5.08H64.24v5.08h-1.714v-11.668h1.714v4.826h1.334v-4.826h1.714v11.668zM73.351 161.372h-1.714l-.89-4.92h-.46v4.92h-1.714v-11.668h1.714q2.921 0 2.921 3.366 0 2-.952 2.65zm-1.92-7.27q.126-.381.126-.969 0-.587-.127-.968-.11-.381-.349-.524-.222-.159-.397-.19-.158-.048-.397-.048v3.46q.239 0 .397-.031.175-.048.397-.19.238-.16.35-.54zM78.77 158.975q0 .095-.016.27-.016.175-.143.62-.111.428-.333.761-.207.334-.683.603-.46.27-1.111.27t-1.127-.254q-.46-.27-.683-.635-.206-.365-.333-.73-.111-.38-.127-.635l-.016-.27v-6.874q0-.095.016-.27.016-.174.127-.603.127-.444.333-.778.222-.333.683-.603.476-.27 1.127-.27.65 0 1.111.27.476.254.683.62.222.364.333.745.127.365.143.635l.016.254zm-1.715-6.874q0-.095-.016-.238 0-.143-.142-.38-.143-.239-.413-.239t-.413.222q-.143.207-.143.413l-.016.222v7.112q.016.143.16.381.142.238.412.238t.413-.206q.143-.222.143-.444l.015-.207zM83.398 161.372l-1.667-6.08-.143-.54h-.095v6.62H79.92v-11.668h1.524l1.667 6.08.143.54h.095v-6.62h1.572v11.668zM90.645 158.975q0 .095-.016.27-.016.175-.143.62-.11.428-.333.761-.206.334-.683.603-.46.27-1.11.27-.652 0-1.128-.254-.46-.27-.683-.635-.206-.365-.333-.73-.111-.38-.127-.635l-.016-.27v-6.874q0-.095.016-.27.016-.174.127-.603.127-.444.333-.778.223-.333.683-.603.476-.27 1.127-.27t1.111.27q.477.254.683.62.222.364.333.745.127.365.143.635l.016.254zm-1.714-6.874q0-.095-.016-.238 0-.143-.143-.38-.143-.239-.413-.239t-.413.222q-.142.207-.142.413l-.016.222v7.112q.016.143.158.381.143.238.413.238t.413-.206q.143-.222.143-.444l.016-.207zM94.638 149.704h1.714v9.271q0 .095-.015.27-.016.175-.143.62-.111.428-.334.761-.206.334-.682.603-.46.27-1.112.27-.65 0-1.127-.254-.46-.27-.682-.635-.207-.365-.334-.73-.11-.38-.127-.635l-.016-.27v-9.27h1.715v9.508q.016.143.159.381.143.238.412.238.27 0 .413-.206.143-.222.143-.444l.016-.207zM97.483 152.308q0-1.08.556-1.89.556-.825 1.683-.84.73-.017 1.238.27.508.285.73.793.238.492.334.984.095.476.095 1.048l-1.683.159q0-1.683-.683-1.683-.587.016-.587 1.159 0 .143.032.317.032.159.08.302.047.127.142.333.095.19.159.302.063.11.206.35l.222.317.254.38.254.35.81 1.238q.238.381.508 1.08.286.698.286 1.285 0 2.937-2.381 2.937-.635 0-1.112-.19-.46-.207-.73-.492-.254-.302-.413-.778-.143-.476-.19-.905-.048-.445-.048-1.032l1.683-.159q0 1.985.81 1.985.698 0 .698-1.286 0-.222-.063-.46-.064-.239-.254-.572-.175-.333-.27-.492l-.413-.603q-.318-.46-.381-.572-.508-.746-.794-1.222-.286-.477-.54-1.143-.238-.683-.238-1.27z"/></g><g style="line-height:1.25" aria-label="MULTI-THREADED" font-size="14.958"><path style="-inkscape-font-specification:'League Gothic'" d="M36.91 174.205h-.689l-1.032-6.91-.06-.465h-.09V174.204h-1.495v-10.993h1.974l.958 5.025.074.584h.03l.075-.584.957-5.025h1.975v10.994H38.09v-7.375h-.09l-.06.464zM43.466 163.21h1.616v8.736q0 .09-.015.254-.015.165-.135.584-.104.403-.314.718-.194.314-.643.568-.434.254-1.047.254t-1.062-.24q-.434-.253-.643-.597-.195-.344-.314-.688-.105-.36-.12-.599l-.015-.254v-8.735h1.615v8.959q.015.135.15.36.135.224.389.224t.389-.195q.134-.21.134-.419l.015-.194zM46.252 174.205V163.21h1.616v9.498h2.138v1.496zM51.62 164.87h-1.525v-1.66h4.667v1.66h-1.526v9.335h-1.615zM55.396 174.205V163.21h1.616v10.994zM58.14 170.884v-1.421h2.17v1.421zM62.4 164.87h-1.525v-1.66h4.667v1.66h-1.526v9.335h-1.615zM69.048 174.205v-4.787h-1.256v4.787h-1.616V163.21h1.616v4.547h1.256v-4.547h1.616v10.994zM76.375 174.205H74.76l-.838-4.637h-.433v4.637h-1.616V163.21h1.616q2.752 0 2.752 3.17 0 1.885-.898 2.499zm-1.81-6.851q.12-.36.12-.913t-.12-.912q-.104-.359-.329-.494-.209-.15-.374-.179-.15-.045-.373-.045v3.26q.224 0 .373-.029.165-.045.374-.18.225-.15.33-.508zM77.278 174.205V163.21h3.694v1.66h-2.079v2.887h1.496v1.765h-1.496v3.021h2.08v1.66zM82.986 174.205h-1.57l1.66-10.994h1.974l1.66 10.994h-1.57l-.299-2.244h-1.556zm1.63-3.95l-.463-3.47-.045-.284h-.09l-.045.285-.463 3.47zM91.902 167.055q.03.628.03 1.66t-.03 1.675q-.015.629-.09 1.287-.06.643-.21 1.002-.134.359-.358.703-.225.329-.584.494-.359.15-.822.239-.464.09-1.122.09h-1.272V163.21h1.272q.658 0 1.122.09.463.09.822.254.36.15.584.493.224.33.359.688.15.36.21 1.017.074.659.089 1.302zm-2.842-2.229v7.763q.688 0 .897-.299.284-.404.3-2.333V168.7q.014-2.752-.18-3.32-.165-.48-.673-.539-.135-.015-.344-.015zM92.995 174.205V163.21h3.695v1.66h-2.08v2.887h1.496v1.765h-1.495v3.021h2.079v1.66zM102.04 167.055q.03.628.03 1.66t-.03 1.675q-.016.629-.09 1.287-.06.643-.21 1.002-.135.359-.359.703-.224.329-.583.494-.36.15-.823.239-.464.09-1.122.09h-1.271V163.21h1.271q.658 0 1.122.09.464.09.823.254.359.15.583.493.224.33.36.688.149.36.208 1.017.075.659.09 1.302zm-2.843-2.229v7.763q.688 0 .898-.299.284-.404.299-2.333V168.7q.015-2.752-.18-3.32-.164-.48-.673-.539-.134-.015-.344-.015z"/></g><g style="line-height:1.25" aria-label="EVENT-BASED" font-size="19.05"><path style="-inkscape-font-specification:'League Gothic'" d="M33.732 190.19V176.19h4.706v2.115H35.79v3.676h1.905v2.248H35.79v3.848h2.648v2.115zM42.279 183.885l1.029-7.696h2l-2.134 14.002h-2.057l-2.134-14.002h2l1.03 7.696.075.59h.115zM46.234 190.19V176.19h4.705v2.115h-2.648v3.676h1.905v2.248h-1.905v3.848h2.648v2.115zM56.247 190.19l-2-7.295-.171-.648h-.115v7.944h-1.886v-14.002h1.83l2 7.296.17.648h.115v-7.944h1.886v14.002zM60.81 178.304h-1.943v-2.115h5.944v2.115h-1.943v11.887H60.81zM65.542 185.962v-1.81h2.763v1.81zM72.282 190.19H69.75V176.19h1.81q1.904 0 2.819.857.933.838.933 2.858 0 .99-.285 1.638-.267.629-.991 1.257.057.02.152.096.096.057.343.323.248.248.438.61.19.343.343.99.153.63.153 1.41 0 3.848-3.182 3.963zM73.33 186q0-.762-.152-1.239-.153-.495-.438-.666-.267-.172-.439-.21-.171-.038-.419-.038h-.076v4.305q.686 0 1.01-.285.514-.515.514-1.867zm-.133-4.972q.133-.381.133-.934 0-.552-.133-.933-.134-.381-.286-.553-.152-.19-.42-.266-.266-.096-.38-.096-.095-.019-.305-.019v3.734h.305q.114-.019.38-.095.268-.095.42-.267.152-.19.286-.571zM78.098 190.19h-2l2.114-14.001h2.515l2.114 14.002h-2l-.38-2.858h-1.982zm2.076-5.028l-.59-4.42-.057-.362h-.115l-.057.362-.59 4.42zM83.642 179.313q0-1.295.667-2.267.667-.99 2.02-1.01.876-.019 1.485.324.61.343.877.953.285.59.4 1.181.114.572.114 1.257l-2.02.19q0-2.018-.818-2.018-.705.019-.705 1.39 0 .172.038.381.038.19.095.362.057.153.171.4.115.229.191.362.076.133.248.42l.266.38.305.457.305.42.971 1.485q.286.458.61 1.296.343.838.343 1.543 0 3.524-2.858 3.524-.762 0-1.333-.228-.552-.248-.876-.591-.305-.362-.496-.933-.171-.572-.228-1.086-.057-.534-.057-1.239l2.019-.19q0 2.381.971 2.381.839 0 .839-1.543 0-.267-.077-.552-.076-.286-.304-.686-.21-.4-.324-.59l-.495-.725q-.381-.552-.458-.685-.61-.896-.952-1.467-.343-.572-.648-1.372-.286-.819-.286-1.524zM90.324 190.19V176.19h4.705v2.115h-2.647v3.676h1.905v2.248h-1.905v3.848h2.647v2.115zM101.843 181.085q.038.8.038 2.114 0 1.315-.038 2.134-.02.8-.115 1.638-.076.82-.266 1.277-.172.457-.458.895-.285.42-.743.629-.457.19-1.047.304-.59.115-1.43.115h-1.618v-14.002h1.619q.838 0 1.429.114.59.115 1.047.324.458.19.743.629.286.419.458.876.19.457.266 1.295.095.839.115 1.658zm-3.62-2.839v9.887q.876 0 1.143-.38.362-.515.381-2.972v-1.6q.02-3.506-.229-4.23-.21-.61-.857-.686-.171-.019-.438-.019z"/></g></g><g style="line-height:1.25" aria-label="LIGHTWEIGHT" font-size="19.403"><path style="-inkscape-font-specification:'League Gothic'" d="M6.895 20.12V5.86H8.99v12.32h2.775v1.94zM12.617 20.12V5.86h2.095v14.26zM21.707 10.982h-2.095V8.79q0-.117-.02-.291 0-.175-.174-.466-.175-.291-.505-.291t-.504.271q-.175.253-.175.505l-.02.272v8.866q.02.175.195.466.174.291.504.291t.505-.252q.174-.272.174-.524l.02-.271v-2.581h-.835v-1.766h2.93v7.102h-1.242l-.252-.68q-.66.835-1.63.835-.737 0-1.28-.31-.524-.33-.757-.777-.214-.446-.33-.892-.097-.466-.097-.776V8.79q0-.117.02-.33.019-.214.155-.738.155-.543.407-.95.272-.408.834-.738.583-.33 1.378-.33.796 0 1.358.33.582.31.835.757.271.446.407.912.155.446.175.776l.019.31zM26.953 20.12v-6.208h-1.63v6.209h-2.095V5.86h2.095v5.898h1.63V5.86h2.096v14.26zM31.86 8.013h-1.98V5.86h6.054v2.153h-1.98v12.108H31.86zM40.734 13.369l-.97 6.752h-1.63L36.214 5.86h1.94l.834 7.412.039.465h.155l.058-.465.893-7.412h1.513l.893 7.412.058.465h.155l.039-.465.834-7.412h1.94l-1.92 14.26h-1.63l-.97-6.751-.117-.835h-.077zM46.572 20.12V5.86h4.792v2.153h-2.697v3.745h1.94v2.29h-1.94v3.92h2.697v2.153zM52.521 20.12V5.86h2.096v14.26zM61.612 10.982h-2.096V8.79q0-.117-.02-.291 0-.175-.174-.466-.175-.291-.504-.291-.33 0-.505.271-.175.253-.175.505l-.019.272v8.866q.02.175.194.466.175.291.505.291t.504-.252q.175-.272.175-.524l.02-.271v-2.581h-.835v-1.766h2.93v7.102H60.37l-.252-.68q-.66.835-1.63.835-.738 0-1.28-.31-.525-.33-.758-.777-.213-.446-.33-.892-.096-.466-.096-.776V8.79q0-.117.019-.33.02-.214.155-.738.155-.543.408-.95.271-.408.834-.738.582-.33 1.378-.33.795 0 1.358.33.582.31.834.757.272.446.408.912.155.446.174.776l.02.31zM66.858 20.12v-6.208h-1.63v6.209h-2.096V5.86h2.096v5.898h1.63V5.86h2.095v14.26zM71.764 8.013h-1.98V5.86h6.054v2.153H73.86v12.108h-2.095z"/></g><g style="line-height:1.25" aria-label="ASYNCHRONOUS" font-size="15.875"><path style="-inkscape-font-specification:'League Gothic'" d="M8.721 33.783H7.054l1.762-11.668h2.096l1.762 11.668h-1.667l-.317-2.38H9.039zm1.73-4.19l-.492-3.684-.047-.301h-.096l-.047.301-.492 3.683zM13.341 24.719q0-1.08.556-1.89.556-.825 1.683-.84.73-.017 1.238.27.508.285.73.793.238.492.334.984.095.476.095 1.048l-1.683.159q0-1.683-.683-1.683-.587.016-.587 1.159 0 .143.032.317.032.159.08.302.047.127.142.333.095.19.159.302.063.11.206.35l.222.317.254.38.254.35.81 1.238q.238.381.508 1.08.286.698.286 1.285 0 2.937-2.381 2.937-.635 0-1.112-.19-.46-.207-.73-.492-.254-.302-.413-.778-.143-.476-.19-.905-.048-.445-.048-1.032l1.683-.159q0 1.985.81 1.985.698 0 .698-1.286 0-.222-.063-.46-.064-.239-.254-.572-.175-.333-.27-.492l-.413-.603q-.317-.46-.381-.572-.508-.746-.794-1.222-.285-.477-.54-1.143-.238-.683-.238-1.27zM20.068 22.115l.858 3.73.047.112h.032l.048-.111.857-3.73h1.683l-1.747 6.698v4.97h-1.714v-4.97l-1.746-6.699zM27.812 33.783l-1.667-6.08-.143-.54h-.095v6.62h-1.571V22.115h1.524l1.666 6.08.143.54h.096v-6.62h1.571v11.668zM33.456 29.783h1.604v1.603q0 .095-.016.27-.016.175-.143.62-.111.428-.334.761-.206.334-.682.603-.46.27-1.111.27t-1.128-.254q-.46-.27-.682-.635-.207-.365-.334-.73-.11-.38-.127-.635l-.015-.27v-6.874q0-.095.015-.27.016-.174.127-.603.127-.444.334-.778.222-.333.682-.603.477-.27 1.128-.27.65 0 1.11.27.477.254.683.62.223.364.334.745.127.365.143.635l.016.254v1.604h-1.604v-1.604q-.016 0 0-.08.016-.094-.032-.221-.031-.127-.095-.254-.047-.127-.19-.207-.127-.095-.334-.095-.27 0-.428.222-.143.207-.159.413l-.016.222v6.874q0 .095.016.238t.159.381q.158.238.428.238.318 0 .477-.206.174-.222.174-.445v-.206zM39.135 33.783v-5.08H37.8v5.08h-1.714V22.115H37.8v4.826h1.334v-4.826h1.714v11.668zM46.911 33.783h-1.714l-.89-4.92h-.46v4.92h-1.714V22.115h1.714q2.921 0 2.921 3.366 0 2-.952 2.65zm-1.92-7.27q.126-.381.126-.969 0-.587-.127-.968-.11-.381-.349-.524-.222-.159-.397-.19-.158-.048-.397-.048v3.46q.239 0 .397-.031.175-.048.397-.19.238-.16.35-.54zM52.33 31.386q0 .095-.016.27-.016.175-.143.62-.111.428-.333.761-.207.334-.683.603-.46.27-1.111.27t-1.127-.254q-.46-.27-.683-.635-.206-.365-.333-.73-.111-.38-.127-.635l-.016-.27v-6.874q0-.095.016-.27.016-.174.127-.603.127-.444.333-.778.222-.333.683-.603.476-.27 1.127-.27.65 0 1.111.27.476.254.683.62.222.364.333.745.127.365.143.635l.016.254zm-1.715-6.874q0-.095-.016-.238 0-.143-.142-.38-.143-.239-.413-.239t-.413.222q-.143.207-.143.413l-.016.222v7.112q.016.143.16.381.142.238.412.238t.413-.206q.143-.222.143-.444l.015-.207zM56.958 33.783l-1.667-6.08-.143-.54h-.095v6.62H53.48V22.115h1.524l1.667 6.08.143.54h.095v-6.62h1.572v11.668zM64.205 31.386q0 .095-.016.27-.016.175-.143.62-.11.428-.333.761-.206.334-.683.603-.46.27-1.11.27-.652 0-1.128-.254-.46-.27-.683-.635-.206-.365-.333-.73-.111-.38-.127-.635l-.016-.27v-6.874q0-.095.016-.27.016-.174.127-.603.127-.444.333-.778.223-.333.683-.603.476-.27 1.127-.27t1.111.27q.477.254.683.62.222.364.333.745.127.365.143.635l.016.254zm-1.714-6.874q0-.095-.016-.238 0-.143-.143-.38-.143-.239-.413-.239t-.413.222q-.142.207-.142.413l-.016.222v7.112q.016.143.158.381.143.238.413.238t.413-.206q.143-.222.143-.444l.016-.207zM68.198 22.115h1.714v9.271q0 .095-.015.27-.016.175-.143.62-.111.428-.334.761-.206.334-.682.603-.46.27-1.112.27-.65 0-1.127-.254-.46-.27-.682-.635-.207-.365-.334-.73-.11-.38-.127-.635l-.016-.27v-9.27h1.715v9.508q.016.143.159.381.143.238.412.238.27 0 .413-.206.143-.222.143-.444l.016-.207zM71.043 24.719q0-1.08.556-1.89.556-.825 1.683-.84.73-.017 1.238.27.508.285.73.793.238.492.334.984.095.476.095 1.048l-1.683.159q0-1.683-.683-1.683-.587.016-.587 1.159 0 .143.032.317.032.159.08.302.047.127.142.333.095.19.159.302.063.11.206.35l.222.317.254.38.254.35.81 1.238q.238.381.508 1.08.286.698.286 1.285 0 2.937-2.381 2.937-.635 0-1.112-.19-.46-.207-.73-.492-.254-.302-.413-.778-.143-.476-.19-.905-.048-.445-.048-1.032l1.683-.159q0 1.985.81 1.985.698 0 .698-1.286 0-.222-.063-.46-.064-.239-.254-.572-.175-.333-.27-.492l-.413-.603q-.318-.46-.381-.572-.508-.746-.794-1.222-.286-.477-.54-1.143-.238-.683-.238-1.27z"/></g><g style="line-height:1.25" aria-label="MULTI-THREADED" font-size="14.958"><path style="-inkscape-font-specification:'League Gothic'" d="M10.47 46.616H9.78l-1.032-6.91-.06-.465H8.6V46.615H7.105V35.623h1.974l.958 5.025.074.584h.03l.075-.584.957-5.025h1.975v10.994H11.65V39.24h-.09l-.06.464zM17.026 35.622h1.616v8.735q0 .09-.015.254-.015.165-.135.584-.104.403-.314.718-.194.314-.643.568-.434.254-1.047.254t-1.062-.24q-.434-.253-.643-.597-.195-.344-.314-.688-.105-.36-.12-.599l-.015-.254v-8.735h1.615v8.959q.015.135.15.36.135.224.389.224t.389-.195q.134-.21.134-.419l.015-.194zM19.812 46.616V35.622h1.616v9.498h2.138v1.496zM25.18 37.282h-1.525v-1.66h4.667v1.66h-1.526v9.334h-1.615zM28.956 46.616V35.622h1.616v10.994zM31.7 43.295v-1.421h2.17v1.421zM35.96 37.282h-1.525v-1.66h4.667v1.66h-1.526v9.334h-1.615zM42.608 46.616v-4.787h-1.256v4.787h-1.616V35.622h1.616v4.547h1.256v-4.547h1.616v10.994zM49.935 46.616H48.32l-.838-4.637h-.433v4.637h-1.616V35.622h1.616q2.752 0 2.752 3.17 0 1.885-.898 2.499zm-1.81-6.851q.12-.36.12-.913t-.12-.912q-.104-.359-.329-.494-.209-.15-.374-.179-.15-.045-.373-.045v3.26q.224 0 .373-.029.165-.045.374-.18.225-.15.33-.508zM50.838 46.616V35.622h3.694v1.66h-2.079v2.887h1.496v1.765h-1.496v3.021h2.08v1.66zM56.546 46.616h-1.57l1.66-10.994h1.974l1.66 10.994H58.7l-.299-2.244h-1.556zm1.63-3.95l-.463-3.47-.045-.284h-.09l-.045.285-.463 3.47zM65.462 39.466q.03.628.03 1.66t-.03 1.675q-.015.629-.09 1.287-.06.643-.21 1.002-.134.359-.358.703-.225.329-.584.494-.359.15-.822.239-.464.09-1.122.09h-1.272V35.622h1.272q.658 0 1.122.09.463.09.822.254.36.15.584.493.224.33.359.688.15.36.21 1.017.074.659.089 1.302zm-2.842-2.229V45q.688 0 .897-.299.284-.404.3-2.333V41.11q.014-2.752-.18-3.32-.165-.48-.673-.539-.135-.015-.344-.015zM66.555 46.616V35.622h3.695v1.66h-2.08v2.887h1.496v1.765h-1.495v3.021h2.079v1.66zM75.6 39.466q.03.628.03 1.66t-.03 1.675q-.016.629-.09 1.287-.06.643-.21 1.002-.135.359-.359.703-.224.329-.583.494-.36.15-.823.239-.464.09-1.122.09h-1.271V35.622h1.271q.658 0 1.122.09.464.09.823.254.359.15.583.493.224.33.36.688.149.36.208 1.017.075.659.09 1.302zm-2.843-2.229V45q.688 0 .898-.299.284-.404.299-2.333V41.11q.015-2.752-.18-3.32-.164-.48-.673-.539-.134-.015-.344-.015z"/></g><g style="line-height:1.25" aria-label="EVENT-BASED" font-size="19.05"><path style="-inkscape-font-specification:'League Gothic'" d="M7.292 62.602V48.6h4.706v2.115H9.35v3.676h1.905v2.248H9.35v3.848h2.648v2.115zM15.839 56.296l1.029-7.696h2l-2.134 14.002h-2.057L12.543 48.6h2l1.03 7.696.075.59h.115zM19.794 62.602V48.6h4.705v2.115h-2.648v3.676h1.905v2.248h-1.905v3.848H24.5v2.115zM29.807 62.602l-2-7.296-.171-.648h-.115v7.944h-1.886V48.6h1.83l2 7.296.17.648h.115V48.6h1.886v14.002zM34.37 50.715h-1.943V48.6h5.944v2.115h-1.943v11.887H34.37zM39.102 58.373v-1.81h2.763v1.81zM45.842 62.602H43.31V48.6h1.81q1.904 0 2.819.857.933.838.933 2.858 0 .99-.285 1.638-.267.629-.991 1.257.057.02.152.096.096.057.343.323.248.248.438.61.19.343.343.99.153.63.153 1.41 0 3.848-3.182 3.963zm1.048-4.191q0-.762-.152-1.239-.153-.495-.438-.666-.267-.172-.439-.21-.171-.038-.419-.038h-.076v4.305q.686 0 1.01-.285.514-.515.514-1.867zm-.133-4.972q.133-.381.133-.934 0-.552-.133-.933-.134-.381-.286-.553-.152-.19-.42-.266-.266-.096-.38-.096-.095-.019-.305-.019v3.734h.305q.114-.019.38-.095.268-.095.42-.267.152-.19.286-.571zM51.658 62.602h-2L51.772 48.6h2.515L56.4 62.602h-2l-.38-2.858h-1.982zm2.076-5.03l-.59-4.42-.057-.361h-.115l-.057.362-.59 4.42zM57.202 51.724q0-1.295.667-2.267.667-.99 2.02-1.01.876-.019 1.485.324.61.343.877.953.285.59.4 1.181.114.572.114 1.257l-2.02.19q0-2.018-.818-2.018-.705.019-.705 1.39 0 .172.038.381.038.19.095.362.057.153.171.4.115.229.191.362.076.133.248.42l.266.38.305.457.305.42.971 1.485q.286.458.61 1.296.343.838.343 1.543 0 3.524-2.858 3.524-.762 0-1.333-.228-.552-.248-.876-.591-.305-.362-.496-.933-.171-.572-.228-1.086-.057-.534-.057-1.239l2.019-.19q0 2.381.971 2.381.839 0 .839-1.543 0-.267-.077-.552-.076-.286-.304-.686-.21-.4-.324-.59l-.495-.725q-.381-.552-.458-.685-.61-.896-.952-1.467-.343-.572-.648-1.372-.286-.819-.286-1.524zM63.884 62.602V48.6h4.705v2.115h-2.647v3.676h1.905v2.248h-1.905v3.848h2.647v2.115zM75.403 53.496q.038.8.038 2.114 0 1.315-.038 2.134-.02.8-.115 1.638-.076.82-.266 1.277-.172.457-.458.895-.285.42-.743.629-.457.19-1.047.304-.59.115-1.43.115h-1.618V48.6h1.619q.838 0 1.429.114.59.115 1.047.324.458.19.743.629.286.419.458.876.19.457.266 1.295.095.839.115 1.658zm-3.62-2.839v9.887q.876 0 1.143-.38.362-.515.381-2.972v-1.6q.02-3.506-.229-4.23-.21-.61-.857-.686-.171-.019-.438-.019z"/></g></g></svg>