<svg xmlns="http://www.w3.org/2000/svg" width="307.694" height="156.052" viewBox="0 0 81.411 41.289" version="1.1"><defs><filter id="b" color-interpolation-filters="sRGB"><feFlood flood-opacity=".498" flood-color="#000" result="flood"/><feComposite in="flood" in2="SourceGraphic" operator="in" result="composite1"/><feGaussianBlur in="composite1" stdDeviation=".9" result="blur"/><feOffset dx="0" dy="0" result="offset"/><feComposite in="offset" in2="offset" operator="atop" result="composite2"/></filter><filter id="a" color-interpolation-filters="sRGB"><feFlood flood-opacity=".498" flood-color="#000" result="flood"/><feComposite in="flood" in2="SourceGraphic" operator="in" result="composite1"/><feGaussianBlur in="composite1" stdDeviation=".9" result="blur"/><feOffset dx="0" dy="0" result="offset"/><feComposite in="offset" in2="offset" operator="atop" result="composite2"/></filter></defs><g font-style="normal" font-weight="400" font-size="45.508" font-family="League Gothic" letter-spacing="-.265" word-spacing="0" fill-opacity="1" stroke="none" stroke-width=".265" font-variant="normal" font-stretch="normal"><g transform="translate(-27.63 -86.337)" aria-label="LWAN" style="line-height:1.25" fill="#999" filter="url(#a)"><path d="M34.326 123.131V89.682h4.915v28.898h6.508v4.551zM56.812 107.294l-2.275 15.837h-3.823L46.21 89.682h4.55l1.958 17.385.09 1.092h.365l.136-1.092 2.094-17.385h3.55l2.093 17.385.136 1.092h.364l.091-1.092 1.957-17.385h4.55l-4.504 33.449h-3.823l-2.276-15.837-.273-1.957h-.182zM73.652 123.131h-4.778l5.052-33.449h6.007l5.051 33.449h-4.778l-.91-6.826h-4.733zm4.96-12.014l-1.41-10.558-.136-.865h-.273l-.137.865-1.41 10.558zM96.918 123.131l-4.779-17.43-.41-1.547h-.272v18.977H86.95V89.682h4.37l4.778 17.43.41 1.547h.272V89.682h4.506v33.449z" style="-inkscape-font-specification:'League Gothic'"/></g><g transform="translate(-23.693 -85.28)" filter="url(#b)"><g style="line-height:1.25" aria-label="LWAN" fill="#666"><path style="-inkscape-font-specification:'League Gothic'" d="M31.447 123.131V89.682h4.915v28.898h6.508v4.551zM53.933 107.294l-2.275 15.837h-3.823L43.33 89.682h4.55l1.957 17.385.091 1.092h.364l.137-1.092 2.093-17.385h3.55l2.093 17.385.137 1.092h.364l.091-1.092 1.957-17.385h4.55l-4.505 33.449h-3.822l-2.276-15.837-.273-1.957h-.182zM70.773 123.131h-4.778l5.051-33.449h6.007l5.052 33.449h-4.779l-.91-6.826h-4.733zm4.96-12.014l-1.41-10.558-.137-.865h-.273l-.136.865-1.411 10.558zM94.039 123.131l-4.779-17.43-.41-1.547h-.272v18.977h-4.506V89.682h4.37l4.777 17.43.41 1.547h.273V89.682h4.505v33.449z"/></g><g style="line-height:1.25" aria-label="LWAN" fill="#999"><path style="-inkscape-font-specification:'League Gothic'" d="M31.447 122.91V89.46h4.915v28.898h6.508v4.551zM53.933 107.072l-2.275 15.837h-3.823L43.33 89.461h4.55l1.957 17.384.091 1.092h.364l.137-1.092 2.093-17.384h3.55l2.093 17.384.137 1.092h.364l.091-1.092 1.957-17.384h4.55l-4.505 33.448h-3.822l-2.276-15.837-.273-1.956h-.182zM70.773 122.91h-4.778l5.051-33.45h6.007l5.052 33.45h-4.779l-.91-6.827h-4.733zm4.96-12.015l-1.41-10.558-.137-.864h-.273l-.136.864-1.411 10.558zM94.039 122.91l-4.779-17.43-.41-1.548h-.272v18.978h-4.506V89.46h4.37l4.777 17.43.41 1.548h.273V89.46h4.505v33.45z"/></g><g style="line-height:1.25" aria-label="LWAN" fill="#b3b3b3"><path style="-inkscape-font-specification:'League Gothic'" d="M31.447 122.684V89.236h4.915v28.898h6.508v4.55zM53.933 106.848l-2.275 15.836h-3.823L43.33 89.236h4.55l1.957 17.384.091 1.092h.364l.137-1.092 2.093-17.384h3.55l2.093 17.384.137 1.092h.364l.091-1.092 1.957-17.384h4.55l-4.505 33.448h-3.822l-2.276-15.836-.273-1.957h-.182zM70.773 122.684h-4.778l5.051-33.448h6.007l5.052 33.448h-4.779l-.91-6.826h-4.733zm4.96-12.014l-1.41-10.558-.137-.864h-.273l-.136.864-1.411 10.558zM94.039 122.684l-4.779-17.43-.41-1.547h-.272v18.978h-4.506v-33.45h4.37l4.777 17.43.41 1.548h.273V89.235h4.505v33.45z"/></g><g style="line-height:1.25" aria-label="LWAN" fill="#ccc"><path style="-inkscape-font-specification:'League Gothic'" d="M31.447 122.452V89.004h4.915V117.9h6.508v4.551zM53.933 106.615l-2.275 15.837h-3.823L43.33 89.004h4.55l1.957 17.384.091 1.092h.364l.137-1.092 2.093-17.384h3.55l2.093 17.384.137 1.092h.364l.091-1.092 1.957-17.384h4.55l-4.505 33.448h-3.822l-2.276-15.837-.273-1.956h-.182zM70.773 122.452h-4.778l5.051-33.448h6.007l5.052 33.448h-4.779l-.91-6.826h-4.733zm4.96-12.014l-1.41-10.558-.137-.865h-.273l-.136.865-1.411 10.558zM94.039 122.452l-4.779-17.43-.41-1.547h-.272v18.978h-4.506v-33.45h4.37l4.777 17.43.41 1.548h.273V89.003h4.505v33.45z"/></g><g style="line-height:1.25" aria-label="LWAN" fill="#eee"><path style="-inkscape-font-specification:'League Gothic'" d="M31.447 122.21V88.76h4.915v28.899h6.508v4.55zM53.933 106.373l-2.275 15.836h-3.823L43.33 88.761h4.55l1.957 17.384.091 1.092h.364l.137-1.092 2.093-17.384h3.55l2.093 17.384.137 1.092h.364l.091-1.092 1.957-17.384h4.55l-4.505 33.448h-3.822l-2.276-15.836-.273-1.957h-.182zM70.773 122.21h-4.778l5.051-33.45h6.007l5.052 33.45h-4.779l-.91-6.827h-4.733zm4.96-12.015l-1.41-10.558-.137-.864h-.273l-.136.864-1.411 10.558zM94.039 122.21l-4.779-17.43-.41-1.548h-.272v18.978h-4.506V88.76h4.37l4.777 17.43.41 1.548h.273V88.76h4.505v33.448z"/></g></g><g style="line-height:1.25" aria-label="LWAN" fill="#666"><path style="-inkscape-font-specification:'League Gothic'" d="M7.225 36.793V3.345h4.915v28.898h6.508v4.55zM29.711 20.957l-2.275 15.836h-3.823L19.108 3.345h4.55l1.957 17.384.092 1.092h.364l.136-1.092L28.3 3.345h3.55l2.094 17.384.136 1.092h.364l.091-1.092 1.957-17.384h4.55l-4.505 33.448h-3.822l-2.276-15.836L30.166 19h-.182zM46.551 36.793h-4.778l5.051-33.448h6.008l5.051 33.448h-4.778l-.91-6.826h-4.733zm4.96-12.014l-1.41-10.558-.136-.864h-.274l-.136.864-1.41 10.558zM69.817 36.793l-4.779-17.43-.41-1.546h-.272v18.977H59.85V3.343h4.37l4.778 17.43.41 1.548h.272V3.345h4.506v33.448z"/></g><g style="line-height:1.25" aria-label="LWAN" fill="#999"><path style="-inkscape-font-specification:'League Gothic'" d="M7.225 36.572V3.123h4.915v28.898h6.508v4.55zM29.711 20.735l-2.275 15.837h-3.823L19.108 3.123h4.55l1.957 17.384.092 1.093h.364l.136-1.093L28.3 3.123h3.55l2.094 17.384.136 1.093h.364l.091-1.093 1.957-17.384h4.55l-4.505 33.449h-3.822l-2.276-15.837-.273-1.957h-.182zM46.551 36.572h-4.778l5.051-33.449h6.008l5.051 33.449h-4.778l-.91-6.826h-4.733zm4.96-12.014L50.102 14l-.136-.865h-.274l-.136.865-1.41 10.558zM69.817 36.572l-4.779-17.43-.41-1.547h-.272v18.977H59.85V3.123h4.37l4.778 17.43.41 1.547h.272V3.123h4.506v33.449z"/></g><g style="line-height:1.25" aria-label="LWAN" fill="#b3b3b3"><path style="-inkscape-font-specification:'League Gothic'" d="M7.225 36.347V2.898h4.915v28.898h6.508v4.55zM29.711 20.51l-2.275 15.837h-3.823L19.108 2.898h4.55l1.957 17.385.092 1.092h.364l.136-1.092L28.3 2.898h3.55l2.094 17.385.136 1.092h.364l.091-1.092 1.957-17.385h4.55l-4.505 33.449h-3.822L30.439 20.51l-.273-1.957h-.182zM46.551 36.347h-4.778l5.051-33.449h6.008l5.051 33.449h-4.778l-.91-6.826h-4.733zm4.96-12.014l-1.41-10.558-.136-.865h-.274l-.136.865-1.41 10.558zM69.817 36.347l-4.779-17.43-.41-1.547h-.272v18.977H59.85V2.898h4.37l4.778 17.43.41 1.547h.272V2.898h4.506v33.449z"/></g><g style="line-height:1.25" aria-label="LWAN" fill="#ccc"><path style="-inkscape-font-specification:'League Gothic'" d="M7.225 36.115V2.666h4.915v28.898h6.508v4.55zM29.711 20.278l-2.275 15.837h-3.823L19.108 2.666h4.55l1.957 17.384.092 1.093h.364l.136-1.093L28.3 2.666h3.55l2.094 17.384.136 1.093h.364l.091-1.093 1.957-17.384h4.55l-4.505 33.449h-3.822l-2.276-15.837-.273-1.957h-.182zM46.551 36.115h-4.778l5.051-33.449h6.008l5.051 33.449h-4.778l-.91-6.826h-4.733zm4.96-12.014l-1.41-10.558-.136-.865h-.274l-.136.865-1.41 10.558zM69.817 36.115l-4.779-17.43-.41-1.547h-.272v18.977H59.85V2.666h4.37l4.778 17.43.41 1.547h.272V2.666h4.506v33.449z"/></g><g style="line-height:1.25" aria-label="LWAN" fill="#eee"><path style="-inkscape-font-specification:'League Gothic'" d="M7.225 35.872V2.423h4.915v28.898h6.508v4.551zM29.711 20.035l-2.275 15.837h-3.823L19.108 2.423h4.55l1.957 17.385.092 1.092h.364l.136-1.092L28.3 2.423h3.55l2.094 17.385.136 1.092h.364l.091-1.092 1.957-17.385h4.55l-4.505 33.449h-3.822l-2.276-15.837-.273-1.957h-.182zM46.551 35.872h-4.778l5.051-33.449h6.008l5.051 33.449h-4.778l-.91-6.826h-4.733zm4.96-12.014L50.102 13.3l-.136-.865h-.274l-.136.865-1.41 10.558zM69.817 35.872l-4.779-17.43-.41-1.547h-.272v18.977H59.85V2.423h4.37l4.778 17.43.41 1.547h.272V2.423h4.506v33.449z"/></g></g></svg>