<svg xmlns="http://www.w3.org/2000/svg" width="307.694" height="156.052" viewBox="0 0 81.411 41.289"><defs><filter id="b" color-interpolation-filters="sRGB"><feFlood flood-opacity=".498" flood-color="#000" result="flood"/><feComposite in="flood" in2="SourceGraphic" operator="in" result="composite1"/><feGaussianBlur in="composite1" stdDeviation=".9" result="blur"/><feOffset result="offset"/><feComposite in="offset" in2="offset" operator="atop" result="composite2"/></filter><filter id="a" color-interpolation-filters="sRGB"><feFlood flood-opacity=".498" flood-color="#000" result="flood"/><feComposite in="flood" in2="SourceGraphic" operator="in" result="composite1"/><feGaussianBlur in="composite1" stdDeviation=".9" result="blur"/><feOffset result="offset"/><feComposite in="offset" in2="offset" operator="atop" result="composite2"/></filter></defs><g font-weight="400" font-size="45.508" font-family="League Gothic" letter-spacing="-.265" word-spacing="0"><path fill="#999" d="M34.33 123.13V89.68h4.9v28.9h6.52v4.55zM56.8 107.3l-2.26 15.83H50.7l-4.5-33.45h4.56l1.96 17.4.1 1.08h.35l.14-1.1 2.1-17.38h3.55l2.1 17.4.13 1.08h.37l.1-1.1 1.94-17.38h4.54l-4.5 33.45h-3.82l-2.28-15.84-.27-1.96h-.18zm16.85 15.83h-4.78l5.06-33.45h6l5.05 33.45H80.2l-.9-6.82h-4.74zm4.96-12l-1.4-10.57-.13-.87h-.28l-.14.86-1.4 10.56zm18.32 12l-4.78-17.43-.4-1.55h-.28v18.98h-4.5V89.68h4.36l4.78 17.43.4 1.56h.28V89.68h4.5v33.45z" style="-inkscape-font-specification:'League Gothic'" transform="translate(-27.63 -86.337)" filter="url(#a)"/><g transform="translate(-23.693 -85.28)" filter="url(#b)"><path fill="#666" d="M31.45 123.13V89.68h4.9v28.9h6.52v4.55zm22.48-15.84l-2.27 15.83h-3.82l-4.5-33.45h4.54l1.96 17.4.1 1.08h.35l.13-1.1 2.1-17.38h3.54l2.1 17.4.13 1.08h.37l.1-1.1L60.7 89.7h4.56l-4.5 33.45h-3.82l-2.28-15.84-.27-1.96h-.2zm16.84 15.83H66l5.05-33.45h6l5.05 33.45h-4.77l-.9-6.82h-4.75zm4.96-12l-1.4-10.57-.14-.87h-.3l-.12.86-1.4 10.56zm18.3 12l-4.77-17.43-.4-1.55h-.28v18.98h-4.5V89.68h4.36l4.78 17.43.4 1.56h.28V89.68h4.5v33.45z" style="-inkscape-font-specification:'League Gothic'"/><path fill="#999" d="M31.45 122.9V89.47h4.9v28.9h6.52v4.55zm22.48-15.83l-2.27 15.84h-3.82l-4.5-33.44h4.54l1.96 17.4.1 1.08h.35l.13-1.1 2.1-17.38h3.54l2.1 17.4.13 1.08h.37l.1-1.1 1.94-17.38h4.56l-4.5 33.45h-3.82l-2.28-15.83-.27-1.95h-.2zm16.84 15.84H66l5.05-33.44h6l5.05 33.45h-4.77l-.9-6.82h-4.75zm4.96-12l-1.4-10.56-.14-.87h-.3l-.12.87-1.4 10.55zm18.3 12l-4.77-17.42-.4-1.55h-.28v18.98h-4.5V89.47h4.36l4.78 17.43.4 1.54h.28V89.46h4.5v33.45z" style="-inkscape-font-specification:'League Gothic'"/><path fill="#b3b3b3" d="M31.45 122.68V89.24h4.9v28.9h6.52v4.54zm22.48-15.83l-2.27 15.83h-3.82l-4.5-33.44h4.54l1.96 17.38.1 1.1h.35l.13-1.1 2.1-17.38h3.54l2.1 17.38.13 1.1h.37l.1-1.1 1.94-17.38h4.56l-4.5 33.44h-3.82l-2.28-15.83-.27-1.96h-.2zm16.84 15.83H66l5.05-33.44h6l5.05 33.44h-4.77l-.9-6.82h-4.75zm4.96-12l-1.4-10.57-.14-.85h-.3l-.12.86-1.4 10.57zm18.3 12l-4.77-17.43-.4-1.54h-.28v18.98h-4.5V89.23h4.36l4.78 17.43.4 1.55h.28V89.24h4.5v33.45z" style="-inkscape-font-specification:'League Gothic'"/><path fill="#ccc" d="M31.45 122.45V89h4.9v28.9h6.52v4.55zm22.48-15.84l-2.27 15.85h-3.82L43.34 89h4.54l1.96 17.4.1 1.08h.35l.13-1.1L52.53 89h3.54l2.1 17.4.13 1.08h.37l.1-1.1L60.7 89h4.56l-4.5 33.45h-3.82l-2.28-15.84-.27-1.94h-.2zm16.84 15.85H66L71.04 89h6l5.05 33.45h-4.77l-.9-6.82h-4.75zm4.96-12l-1.4-10.57-.14-.86h-.3l-.12.86-1.4 10.56zm18.3 12l-4.77-17.43-.4-1.55h-.28v18.98h-4.5V89h4.36l4.78 17.43.4 1.55h.28V89h4.5v33.45z" style="-inkscape-font-specification:'League Gothic'"/><path fill="#eee" d="M31.45 122.2V88.77h4.9v28.9h6.52v4.55zm22.48-15.83l-2.27 15.84h-3.82l-4.5-33.44h4.54l1.96 17.38.1 1.1h.35l.13-1.1 2.1-17.38h3.54l2.1 17.38.13 1.1h.37l.1-1.1 1.94-17.38h4.56l-4.5 33.45h-3.82l-2.28-15.83-.27-1.95h-.2zm16.84 15.84H66l5.05-33.44h6l5.05 33.45h-4.77l-.9-6.82h-4.75zm4.96-12l-1.4-10.56-.14-.87h-.3l-.12.87-1.4 10.55zm18.3 12l-4.77-17.42-.4-1.55h-.28v18.98h-4.5V88.77h4.36l4.78 17.43.4 1.54h.28V88.76h4.5v33.45z" style="-inkscape-font-specification:'League Gothic'"/></g><path fill="#666" d="M7.22 36.8V3.34h4.92v28.9h6.5v4.54zm22.5-15.84L27.43 36.8H23.6L19.1 3.34h4.56l1.96 17.38.1 1.1h.35l.14-1.1 2.1-17.4h3.55l2.1 17.4.13 1.1h.36l.1-1.1 1.95-17.4h4.54l-4.5 33.46H32.7l-2.26-15.84-.27-1.96h-.2zM46.54 36.8h-4.78l5.05-33.45h6l5.06 33.44H53.1l-.9-6.83h-4.74zm4.96-12.02l-1.4-10.56-.13-.86h-.28l-.15.86-1.4 10.56zm18.32 12l-4.78-17.42-.4-1.54h-.28V36.8h-4.5V3.33h4.36L69 20.77l.4 1.55h.28V3.34h4.5V36.8z" style="-inkscape-font-specification:'League Gothic'"/><path fill="#999" d="M7.22 36.57V3.12h4.92v28.9h6.5v4.55zm22.5-15.84l-2.28 15.84H23.6L19.1 3.12h4.56l1.96 17.4.1 1.08h.35l.14-1.1 2.1-17.38h3.55l2.1 17.4.13 1.08h.36l.1-1.1L36.5 3.13h4.54l-4.5 33.45H32.7l-2.26-15.83-.27-1.96h-.2zm16.83 15.84h-4.78l5.05-33.45h6l5.06 33.45H53.1l-.9-6.82h-4.74zm4.96-12L50.1 14l-.13-.86h-.28l-.14.86-1.4 10.56zm18.32 12l-4.78-17.43-.4-1.54h-.28v18.97h-4.5V3.12h4.36L69 20.55l.4 1.55h.28V3.12h4.5v33.45z" style="-inkscape-font-specification:'League Gothic'"/><path fill="#b3b3b3" d="M7.22 36.35V2.9h4.92v28.9h6.5v4.55zm22.5-15.84l-2.28 15.85H23.6L19.1 2.9h4.56l1.96 17.38.1 1.1h.35l.14-1.1L28.3 2.9h3.55l2.1 17.38.13 1.1h.36l.1-1.1L36.5 2.9h4.54l-4.5 33.45H32.7L30.45 20.5l-.27-1.95h-.2zm16.83 15.85h-4.78L46.82 2.9h6l5.06 33.45H53.1l-.9-6.83h-4.74zm4.96-12.02l-1.4-10.55-.13-.87h-.28l-.15.88-1.4 10.55zm18.32 12.02l-4.78-17.43-.4-1.55h-.28v18.98h-4.5V2.9h4.36L69 20.33l.4 1.55h.28V2.9h4.5v33.45z" style="-inkscape-font-specification:'League Gothic'"/><path fill="#ccc" d="M7.22 36.12V2.66h4.92v28.9h6.5v4.54zm22.5-15.84L27.43 36.1H23.6L19.1 2.68h4.56l1.96 17.38.1 1.1h.35l.14-1.1 2.1-17.38h3.55l2.1 17.38.13 1.1h.36l.1-1.1L36.5 2.67h4.54l-4.5 33.45H32.7l-2.26-15.84-.27-1.96h-.2zm16.83 15.84h-4.78l5.05-33.45h6l5.06 33.45H53.1l-.9-6.83h-4.74zM51.5 24.1l-1.4-10.56-.13-.86h-.28l-.15.86-1.4 10.56zm18.32 12.02L65.04 18.7l-.4-1.56h-.28v18.98h-4.5V2.66h4.36L69 20.1l.4 1.54h.28V2.67h4.5v33.45z" style="-inkscape-font-specification:'League Gothic'"/><path fill="#eee" d="M7.22 35.87V2.42h4.92v28.9h6.5v4.55zm22.5-15.83l-2.28 15.83H23.6L19.1 2.42h4.56l1.96 17.4.1 1.08h.35l.14-1.1 2.1-17.38h3.55l2.1 17.4.13 1.08h.36l.1-1.1L36.5 2.43h4.54l-4.5 33.45H32.7l-2.26-15.83-.27-1.96h-.2zm16.83 15.83h-4.78l5.05-33.45h6l5.06 33.45H53.1l-.9-6.82h-4.74zm4.96-12L50.1 13.3l-.13-.86h-.28l-.14.86-1.4 10.56zm18.32 12l-4.78-17.43-.4-1.55h-.28v18.97h-4.5V2.42h4.36L69 19.85l.4 1.55h.28V2.42h4.5v33.45z" style="-inkscape-font-specification:'League Gothic'"/></g></svg>