<svg xmlns="http://www.w3.org/2000/svg" version="1.1" viewBox="0 0 81.79 18.123" height="68.496" width="309.127"><defs><filter id="a" color-interpolation-filters="sRGB"><feFlood result="flood" flood-color="#000" flood-opacity=".498"/><feComposite result="composite1" operator="in" in2="SourceGraphic" in="flood"/><feGaussianBlur result="blur" stdDeviation=".9" in="composite1"/><feOffset result="offset" dy="0" dx="0"/><feComposite result="composite2" operator="atop" in2="offset" in="offset"/></filter></defs><g font-style="normal" font-weight="400" font-size="20.108" font-family="League Gothic" letter-spacing="0" word-spacing="0" fill="#eee" fill-opacity="1" stroke="none" stroke-width=".265" font-variant="normal" font-stretch="normal"><g style="line-height:1.25" aria-label="WEB-SERVER" filter="url(#a)" transform="translate(-26.912 -190.544)"><path style="-inkscape-font-specification:'League Gothic'" d="M38.413 199.998l-1.006 6.998h-1.689l-1.99-14.78h2.01l.865 7.682.04.482h.161l.06-.482.925-7.682h1.569l.925 7.682.06.482h.16l.041-.482.865-7.682h2.01l-1.99 14.78h-1.69l-1.005-6.998-.12-.864h-.08zM44.462 206.996v-14.78h4.967v2.232h-2.795v3.881h2.01v2.373h-2.01v4.062h2.795v2.232zM53.303 206.996h-2.675v-14.78h1.91q2.012 0 2.977.905.985.885.985 3.016 0 1.046-.302 1.73-.281.663-1.045 1.327.06.02.16.1.101.06.363.342.261.262.462.644.201.362.362 1.045.16.664.16 1.488 0 4.062-3.357 4.183zm1.106-4.424q0-.804-.161-1.307-.16-.523-.463-.704-.281-.18-.462-.22-.181-.041-.442-.041h-.08v4.544q.723 0 1.065-.301.543-.543.543-1.97zm-.141-5.248q.14-.402.14-.985 0-.584-.14-.986t-.302-.583q-.16-.201-.442-.281-.281-.1-.402-.1-.1-.021-.322-.021v3.941h.322q.12-.02.402-.1.282-.1.442-.282.161-.201.302-.603zM57.853 202.532v-1.91h2.916v1.91zM62.152 195.514q0-1.367.704-2.393.704-1.045 2.131-1.066.925-.02 1.569.342.643.362.925 1.006.301.623.422 1.246.12.604.12 1.328l-2.13.2q0-2.13-.865-2.13-.744.02-.744 1.467 0 .181.04.402.04.201.1.382.06.161.181.423.121.24.201.382.08.14.262.442l.281.402.322.483.322.442 1.025 1.569q.302.482.644 1.367.362.885.362 1.629 0 3.72-3.017 3.72-.804 0-1.407-.241-.583-.262-.925-.624-.322-.382-.523-.985-.18-.603-.241-1.146-.06-.563-.06-1.307l2.131-.201q0 2.513 1.025 2.513.885 0 .885-1.629 0-.281-.08-.583-.08-.301-.322-.724-.221-.422-.342-.623l-.523-.764q-.402-.583-.482-.724-.644-.945-1.006-1.548-.362-.604-.683-1.448-.302-.865-.302-1.609zM69.205 206.996v-14.78h4.967v2.232h-2.795v3.881h2.01v2.373h-2.01v4.062h2.795v2.232zM81.424 206.996h-2.172l-1.126-6.234h-.583v6.234H75.37v-14.78h2.172q3.7 0 3.7 4.263 0 2.534-1.207 3.358zm-2.433-9.21q.16-.482.16-1.226t-.16-1.227q-.141-.482-.443-.663-.281-.202-.502-.242-.202-.06-.503-.06v4.384q.301 0 .503-.04.22-.06.502-.242.302-.201.443-.684zM85.492 200.34l1.086-8.124h2.111l-2.252 14.78h-2.171l-2.253-14.78h2.112l1.086 8.124.08.623h.12zM89.667 206.996v-14.78h4.967v2.232h-2.795v3.881h2.01v2.373h-2.01v4.062h2.795v2.232zM101.886 206.996h-2.172l-1.126-6.234h-.583v6.234h-2.172v-14.78h2.172q3.7 0 3.7 4.263 0 2.534-1.207 3.358zm-2.434-9.21q.161-.482.161-1.226t-.16-1.227q-.141-.482-.443-.663-.281-.202-.503-.242-.2-.06-.502-.06v4.384q.301 0 .502-.04.222-.06.503-.242.302-.201.442-.684z"/></g><g style="line-height:1.25" aria-label="WEB-SERVER"><path style="-inkscape-font-specification:'League Gothic'" d="M11.5 9.454l-1.005 6.998H8.806l-1.99-14.78h2.01l.865 7.682.04.482h.161l.06-.482.925-7.682h1.569l.925 7.682.06.482h.16l.041-.482.865-7.682h2.01l-1.99 14.78h-1.69l-1.005-6.998-.12-.864h-.08zM17.55 16.452V1.672h4.967v2.232h-2.795v3.881h2.01v2.373h-2.01v4.062h2.795v2.232zM26.39 16.452h-2.674V1.672h1.91q2.012 0 2.977.905.985.885.985 3.016 0 1.046-.302 1.73-.281.663-1.045 1.327.06.02.16.1.101.06.363.342.261.262.462.644.201.362.362 1.045.16.664.16 1.488 0 4.062-3.357 4.183zm1.107-4.424q0-.804-.161-1.307-.16-.523-.463-.704-.281-.18-.462-.22-.181-.041-.442-.041h-.08V14.3q.723 0 1.065-.301.543-.543.543-1.97zm-.141-5.248q.14-.402.14-.985 0-.584-.14-.986t-.302-.583q-.16-.201-.442-.281-.281-.101-.402-.101-.1-.02-.322-.02v3.941h.322q.12-.02.402-.1.282-.1.442-.282.161-.201.302-.603zM30.941 11.988v-1.91h2.916v1.91zM35.24 4.97q0-1.367.704-2.393.704-1.045 2.131-1.066.925-.02 1.569.342.643.362.925 1.006.301.623.422 1.246.12.604.12 1.328l-2.13.2q0-2.13-.865-2.13-.744.02-.744 1.467 0 .181.04.402.04.201.1.382.06.161.181.423.121.24.201.382.08.14.262.442l.281.402.322.483.322.442 1.025 1.569q.302.482.644 1.367.362.885.362 1.629 0 3.72-3.017 3.72-.804 0-1.407-.241-.583-.262-.925-.624-.322-.382-.523-.985-.18-.603-.241-1.146-.06-.563-.06-1.307l2.131-.201q0 2.513 1.025 2.513.885 0 .885-1.629 0-.281-.08-.583-.08-.301-.322-.724-.221-.422-.342-.623l-.523-.764q-.402-.583-.482-.724-.644-.945-1.006-1.548-.362-.604-.683-1.448-.302-.865-.302-1.609zM42.293 16.452V1.672h4.967v2.232h-2.795v3.881h2.01v2.373h-2.01v4.062h2.795v2.232zM54.512 16.452H52.34l-1.126-6.234h-.583v6.234h-2.172V1.672h2.172q3.7 0 3.7 4.263 0 2.534-1.207 3.358zm-2.433-9.21q.16-.482.16-1.226t-.16-1.227q-.141-.482-.443-.663-.281-.202-.502-.242-.202-.06-.503-.06v4.384q.301 0 .503-.04.22-.06.502-.242.302-.201.443-.684zM58.58 9.796l1.086-8.124h2.111l-2.252 14.78h-2.171L55.1 1.672h2.112l1.086 8.124.08.623h.12zM62.755 16.452V1.672h4.967v2.232h-2.795v3.881h2.01v2.373h-2.01v4.062h2.795v2.232zM74.974 16.452h-2.172l-1.126-6.234h-.583v6.234H68.92V1.672h2.172q3.7 0 3.7 4.263 0 2.534-1.207 3.358zm-2.434-9.21q.161-.482.161-1.226t-.16-1.227q-.141-.482-.443-.663-.281-.202-.503-.242-.2-.06-.502-.06v4.384q.301 0 .502-.04.222-.06.503-.242.302-.201.442-.684z"/></g></g></svg>