<svg xmlns="http://www.w3.org/2000/svg" width="309.127" height="68.496" viewBox="0 0 81.79 18.123"><defs><filter id="a" color-interpolation-filters="sRGB"><feFlood result="flood" flood-color="#000" flood-opacity=".498"/><feComposite result="composite1" operator="in" in2="SourceGraphic" in="flood"/><feGaussianBlur result="blur" stdDeviation=".9" in="composite1"/><feOffset result="offset"/><feComposite result="composite2" operator="atop" in2="offset" in="offset"/></filter></defs><g fill="#eee" font-weight="400" font-size="20.108" font-family="League Gothic" letter-spacing="0" word-spacing="0"><path d="M38.4 200l-1 7h-1.68l-2-14.78h2.02l.86 7.68.04.48h.16l.06-.48.93-7.68h1.56l.92 7.68.06.48h.16l.04-.48.87-7.68h2.02l-2 14.78h-1.68l-1-7-.13-.87h-.07zm6.06 7v-14.78h4.97v2.23h-2.8v3.88h2v2.37h-2v4.06h2.8V207zm8.84 0h-2.67v-14.78h1.9q2.02 0 2.98.9 1 .9 1 3.02 0 1.04-.3 1.73-.28.66-1.05 1.32.06 0 .16.1.1.05.38.34.26.26.46.64.2.36.36 1.04.16.67.16 1.5 0 4.05-3.36 4.18zm1.1-4.43q0-.8-.15-1.3-.16-.53-.47-.7-.28-.2-.46-.23-.18-.04-.44-.04h-.08v4.54q.72 0 1.07-.3.54-.54.54-1.97zm-.13-5.25q.14-.4.14-.98 0-.6-.13-1t-.3-.57q-.16-.2-.45-.28-.28-.1-.4-.1-.1-.03-.32-.03v3.94h.32q.12 0 .4-.1.3-.1.45-.27.16-.2.3-.6zm3.58 5.2v-1.9h2.92v1.9zm4.3-7q0-1.37.7-2.4.7-1.04 2.14-1.06.9-.02 1.56.34.64.36.92 1 .3.63.42 1.25.12.6.12 1.33l-2.13.2q0-2.13-.87-2.13-.75.02-.75 1.46 0 .2.04.42.04.2.1.38.06.16.2.42.1.24.2.38.07.14.25.45l.28.4.32.48.32.44 1.02 1.57q.3.48.64 1.37.36.9.36 1.64 0 3.72-3 3.72-.82 0-1.42-.24-.58-.27-.92-.63-.33-.4-.53-1-.18-.6-.24-1.14-.05-.56-.05-1.3l2.13-.2q0 2.5 1.03 2.5.9 0 .9-1.62 0-.28-.1-.6-.07-.3-.3-.7-.23-.43-.35-.63l-.52-.76q-.4-.58-.5-.72-.63-.95-1-1.55-.35-.6-.68-1.45-.3-.86-.3-1.6zM69.2 207v-14.78h4.97v2.23h-2.8v3.88h2.02v2.37h-2.02v4.06h2.8V207zm12.22 0h-2.17l-1.12-6.24h-.6V207h-2.16v-14.78h2.17q3.7 0 3.7 4.26 0 2.53-1.2 3.36zM79 197.8q.15-.5.15-1.24t-.16-1.23q-.15-.48-.45-.66-.28-.2-.5-.24-.2-.06-.5-.06v4.38q.3 0 .5-.04.22-.05.5-.23.3-.2.44-.68zm6.5 2.54l1.08-8.12h2.1L86.45 207h-2.17L82 192.22h2.13l1.08 8.12.1.62h.1zm4.17 6.66v-14.78h4.96v2.23h-2.8v3.88h2.02v2.37h-2v4.06h2.78V207zm12.22 0h-2.2l-1.1-6.24H98V207h-2.17v-14.78H98q3.7 0 3.7 4.26 0 2.53-1.2 3.36zm-2.45-9.2q.16-.5.16-1.24t-.15-1.23q-.14-.48-.44-.66-.27-.2-.5-.24-.2-.06-.5-.06v4.38q.3 0 .5-.04.23-.05.5-.23.3-.2.45-.68z" style="-inkscape-font-specification:'League Gothic'" filter="url(#a)" transform="translate(-26.912 -190.544)"/><path d="M11.5 9.45l-1 7H8.8L6.83 1.67h2l.87 7.68.03.5h.16l.05-.5.93-7.68h1.57l.92 7.68.06.5h.16l.03-.5.87-7.68h2l-1.98 14.78h-1.7l-1-7-.12-.86h-.08zm6.05 7V1.67h4.97V3.9h-2.8v3.9h2v2.36h-2v4.06h2.8v2.23zm8.84 0H23.7V1.67h1.9q2.02 0 2.98.9 1 .9 1 3.02 0 1.04-.3 1.72-.3.67-1.06 1.33.06.02.16.1.1.06.36.34.26.25.47.64.2.36.36 1.04.15.67.15 1.5 0 4.05-3.36 4.17zm1.1-4.42q0-.8-.16-1.3-.16-.53-.47-.7-.28-.2-.46-.23-.17-.04-.43-.04h-.08v4.54q.7 0 1.05-.3.55-.54.55-1.97zm-.14-5.25q.14-.4.14-.98 0-.6-.14-1t-.3-.57q-.17-.2-.45-.28-.27-.1-.4-.1-.1-.03-.3-.03v3.95h.3q.13-.02.4-.1.3-.1.45-.3.17-.2.3-.6zm3.58 5.2v-1.9h2.92v1.9zm4.3-7q0-1.38.7-2.4.7-1.05 2.14-1.07.92 0 1.56.35.65.36.93 1 .3.63.42 1.25.1.6.1 1.33l-2.12.2q0-2.13-.86-2.13-.75.02-.75 1.47 0 .18.04.4.05.2.1.38.07.17.2.43.1.24.2.38.07.14.26.44l.28.4.32.5.32.43L40.1 9.9q.3.48.65 1.36.36.9.36 1.63 0 3.7-3 3.7-.8 0-1.4-.23-.6-.26-.94-.62-.32-.38-.52-1-.18-.6-.24-1.13-.06-.57-.06-1.3l2.13-.2q0 2.5 1.02 2.5.88 0 .88-1.63 0-.3-.08-.6t-.32-.7q-.22-.44-.34-.64l-.53-.76q-.4-.58-.47-.72-.64-.95-1-1.55-.37-.6-.7-1.45-.3-.87-.3-1.6zm7.05 11.47V1.67h4.96V3.9h-2.8v3.9h2v2.36h-2v4.06h2.8v2.23zm12.2 0h-2.16l-1.13-6.23h-.57v6.23h-2.17V1.67h2.17q3.7 0 3.7 4.27 0 2.53-1.2 3.35zm-2.42-9.2q.16-.5.16-1.23t-.16-1.23q-.14-.5-.44-.67-.28-.2-.5-.25-.2-.06-.5-.06v4.4q.3 0 .5-.05.2-.06.5-.24.3-.2.44-.7zm6.5 2.55l1.1-8.13h2.1l-2.26 14.78h-2.17L55.1 1.67h2.1l1.1 8.13.08.62h.12zm4.18 6.65V1.67h4.96V3.9h-2.8v3.9h2.02v2.36h-2v4.06h2.78v2.23zm12.2 0H72.8l-1.12-6.23h-.6v6.23h-2.16V1.67h2.17q3.7 0 3.7 4.27 0 2.53-1.2 3.35zm-2.42-9.2q.16-.5.16-1.23t-.16-1.23q-.14-.5-.44-.67-.28-.2-.5-.25-.2-.06-.5-.06v4.4q.3 0 .5-.05.22-.06.5-.24.3-.2.44-.7z" style="-inkscape-font-specification:'League Gothic'"/></g></svg>