#define colonF_width 11
#define colonF_height 35
static unsigned char colonF_bits[] = {
 0x00,0x00,0x00,0x00,0x00,0x00,0x00,0x00,0x00,0x00,0x00,0x00,0x00,0x00,0x00,
 0x00,0x00,0x00,0x00,0x00,0x00,0x00,0x00,0x00,0x70,0x00,0xf8,0x00,0xfc,0x01,
 0xfc,0x01,0xfc,0x01,0xfc,0x01,0xfc,0x01,0xf8,0x00,0x70,0x00,0x00,0x00,0x00,
 0x00,0x00,0x00,0x00,0x00,0x00,0x00,0x70,0x00,0xf8,0x00,0xfc,0x01,0xfc,0x01,
 0xfc,0x01,0xfc,0x01,0xfc,0x01,0xf8,0x00,0x70,0x00};
