#define colonD2_width 41
#define colonD2_height 115
static unsigned char colonD2_bits[] = {
 0x00,0x00,0x00,0x00,0x00,0x00,0x00,0x00,0x00,0x00,0x00,0x00,0x00,0x00,0x00,
 0x00,0x00,0x00,0x00,0x00,0x00,0x00,0x00,0x00,0x00,0x00,0x00,0x00,0x00,0x00,
 0x00,0x00,0x00,0x00,0x00,0x00,0x00,0x00,0x00,0x00,0x00,0x00,0x00,0x00,0x00,
 0x00,0x00,0x00,0x00,0x00,0x00,0x00,0x00,0x00,0x00,0x00,0x00,0x00,0x00,0x00,
 0x00,0x00,0x00,0x00,0x00,0x00,0x00,0x00,0x00,0x00,0x00,0x00,0x00,0x00,0x00,
 0x00,0x00,0x00,0x00,0x00,0x00,0x00,0x00,0x00,0x00,0x00,0x00,0x00,0x00,0x00,
 0x00,0x00,0x00,0x00,0x00,0x00,0x00,0x00,0x00,0x00,0x00,0x00,0x00,0x00,0x00,
 0x00,0x00,0x00,0x00,0x00,0x00,0x00,0x00,0x00,0x00,0x00,0x00,0x00,0x00,0x00,
 0x00,0x00,0x00,0x00,0x00,0x00,0x00,0x00,0x00,0x00,0x00,0x00,0x00,0x00,0x00,
 0x00,0x00,0x00,0x00,0x00,0x00,0x00,0x00,0x00,0x00,0x00,0x00,0x00,0x00,0x00,
 0x00,0x00,0x00,0x00,0x00,0x00,0x00,0x00,0x00,0x00,0x00,0x00,0x00,0x00,0x00,
 0x00,0x00,0x00,0x00,0x00,0x00,0x00,0x00,0x00,0x00,0x00,0x00,0x00,0x00,0x00,
 0x00,0x00,0x00,0x00,0x00,0x00,0x00,0x00,0x00,0x00,0x00,0x00,0x00,0x00,0x00,
 0x00,0x00,0x00,0x00,0x00,0x00,0x00,0x00,0x00,0x00,0x00,0xfe,0x01,0x00,0x00,
 0x00,0xc0,0xff,0x0f,0x00,0x00,0x00,0xe0,0xff,0x1f,0x00,0x00,0x00,0xf0,0xff,
 0x3f,0x00,0x00,0x00,0xf8,0xff,0x7f,0x00,0x00,0x00,0xfc,0xff,0xff,0x00,0x00,
 0x00,0xfe,0xff,0xff,0x01,0x00,0x00,0xfe,0xff,0xff,0x01,0x00,0x00,0xff,0xff,
 0xff,0x03,0x00,0x00,0xff,0xff,0xff,0x03,0x00,0x00,0xff,0xff,0xff,0x03,0x00,
 0x80,0xff,0xff,0xff,0x03,0x00,0x80,0xff,0xff,0xff,0x07,0x00,0x80,0xff,0xff,
 0xff,0x07,0x00,0x80,0xff,0xff,0xff,0x07,0x00,0x80,0xff,0xff,0xff,0x07,0x00,
 0x80,0xff,0xff,0xff,0x03,0x00,0x00,0xff,0xff,0xff,0x03,0x00,0x00,0xff,0xff,
 0xff,0x03,0x00,0x00,0xff,0xff,0xff,0x03,0x00,0x00,0xfe,0xff,0xff,0x01,0x00,
 0x00,0xfe,0xff,0xff,0x01,0x00,0x00,0xfc,0xff,0xff,0x00,0x00,0x00,0xf8,0xff,
 0x7f,0x00,0x00,0x00,0xf0,0xff,0x3f,0x00,0x00,0x00,0xe0,0xff,0x1f,0x00,0x00,
 0x00,0x80,0xff,0x07,0x00,0x00,0x00,0x00,0xfe,0x01,0x00,0x00,0x00,0x00,0x00,
 0x00,0x00,0x00,0x00,0x00,0x00,0x00,0x00,0x00,0x00,0x00,0x00,0x00,0x00,0x00,
 0x00,0x00,0x00,0x00,0x00,0x00,0x00,0x00,0x00,0x00,0x00,0x00,0x00,0x00,0x00,
 0x00,0x00,0x00,0x00,0x00,0x00,0x00,0x00,0x00,0x00,0x00,0x00,0x00,0x00,0x00,
 0x00,0x00,0x00,0x00,0x00,0x00,0x00,0x00,0x00,0x00,0x00,0x00,0x00,0x00,0x00,
 0x00,0x00,0x00,0x00,0x00,0x00,0x00,0x00,0x00,0x00,0x00,0x00,0x00,0x00,0x00,
 0x00,0x00,0x00,0x00,0x00,0x00,0x00,0x00,0x00,0x00,0x00,0x00,0x00,0x00,0x00,
 0x00,0x00,0x00,0x00,0x00,0x00,0x00,0x00,0x00,0x00,0x00,0x00,0x00,0x00,0x00,
 0x00,0x00,0x00,0x00,0x00,0x00,0x00,0x00,0x00,0x00,0x00,0x00,0x00,0x00,0x00,
 0x00,0x00,0x00,0x00,0x00,0x00,0x00,0x00,0x00,0x00,0x00,0x00,0x00,0x00,0x00,
 0x00,0x00,0x00,0x00,0x00,0x00,0x00,0x00,0x00,0x00,0x00,0x00,0x00,0x00,0x78,
 0x00,0x00,0x00,0x00,0x80,0xff,0x07,0x00,0x00,0x00,0xe0,0xff,0x0f,0x00,0x00,
 0x00,0xf0,0xff,0x3f,0x00,0x00,0x00,0xf8,0xff,0x7f,0x00,0x00,0x00,0xfc,0xff,
 0xff,0x00,0x00,0x00,0xfe,0xff,0xff,0x00,0x00,0x00,0xfe,0xff,0xff,0x01,0x00,
 0x00,0xff,0xff,0xff,0x01,0x00,0x00,0xff,0xff,0xff,0x03,0x00,0x00,0xff,0xff,
 0xff,0x03,0x00,0x80,0xff,0xff,0xff,0x03,0x00,0x80,0xff,0xff,0xff,0x07,0x00,
 0x80,0xff,0xff,0xff,0x07,0x00,0x80,0xff,0xff,0xff,0x07,0x00,0x80,0xff,0xff,
 0xff,0x07,0x00,0x80,0xff,0xff,0xff,0x07,0x00,0x80,0xff,0xff,0xff,0x03,0x00,
 0x00,0xff,0xff,0xff,0x03,0x00,0x00,0xff,0xff,0xff,0x03,0x00,0x00,0xff,0xff,
 0xff,0x01,0x00,0x00,0xfe,0xff,0xff,0x01,0x00,0x00,0xfc,0xff,0xff,0x00,0x00,
 0x00,0xfc,0xff,0x7f,0x00,0x00,0x00,0xf8,0xff,0x7f,0x00,0x00,0x00,0xf0,0xff,
 0x1f,0x00,0x00,0x00,0xc0,0xff,0x0f,0x00,0x00,0x00,0x00,0xff,0x03,0x00,0x00};
