#define colonE_width 25
#define colonE_height 64
static unsigned char colonE_bits[] = {
 0x00,0x00,0x00,0x00,0x00,0x00,0x00,0x00,0x00,0x00,0x00,0x00,0x00,0x00,0x00,
 0x00,0x00,0x00,0x00,0x00,0x00,0x00,0x00,0x00,0x00,0x00,0x00,0x00,0x00,0x00,
 0x00,0x00,0x00,0x00,0x00,0x00,0x00,0x00,0x00,0x00,0x00,0x00,0x00,0x00,0x00,
 0x00,0x00,0x00,0x00,0x00,0x00,0x00,0x00,0x00,0x00,0x00,0x00,0x00,0x00,0x00,
 0x00,0x00,0x00,0x00,0x00,0x00,0x00,0x00,0x00,0x00,0x00,0x00,0x00,0x00,0x00,
 0x00,0x00,0xfe,0x00,0x00,0x00,0xff,0x03,0x00,0x80,0xff,0x07,0x00,0xc0,0xff,
 0x07,0x00,0xc0,0xff,0x0f,0x00,0xc0,0xff,0x0f,0x00,0xe0,0xff,0x0f,0x00,0xe0,
 0xff,0x0f,0x00,0xe0,0xff,0x0f,0x00,0xc0,0xff,0x0f,0x00,0xc0,0xff,0x0f,0x00,
 0xc0,0xff,0x07,0x00,0x80,0xff,0x07,0x00,0x00,0xff,0x03,0x00,0x00,0xfc,0x00,
 0x00,0x00,0x00,0x00,0x00,0x00,0x00,0x00,0x00,0x00,0x00,0x00,0x00,0x00,0x00,
 0x00,0x00,0x00,0x00,0x00,0x00,0x00,0x00,0x00,0x00,0x00,0x00,0x00,0x00,0x00,
 0x00,0x00,0x00,0x00,0x00,0x00,0x00,0x00,0x00,0x00,0x00,0x00,0x00,0x00,0x00,
 0x00,0x00,0x00,0x00,0x00,0x00,0x00,0x00,0x00,0x00,0x00,0x00,0x00,0x30,0x00,
 0x00,0x00,0xfe,0x01,0x00,0x00,0xff,0x03,0x00,0x80,0xff,0x07,0x00,0xc0,0xff,
 0x0f,0x00,0xc0,0xff,0x0f,0x00,0xe0,0xff,0x0f,0x00,0xe0,0xff,0x0f,0x00,0xe0,
 0xff,0x0f,0x00,0xe0,0xff,0x0f,0x00,0xc0,0xff,0x0f,0x00,0xc0,0xff,0x0f,0x00,
 0x80,0xff,0x07,0x00,0x80,0xff,0x03,0x00,0x00,0xfe,0x01,0x00,0x00,0x78,0x00,
 0x00};
