#define eightG_width 11
#define eightG_height 16
static unsigned char eightG_bits[] = {
 0xf8,0x00,0x8c,0x03,0x8e,0x03,0x8e,0x03,0x9e,0x03,0xbe,0x01,0xfe,0x00,0xfc,
 0x00,0xf8,0x01,0xee,0x03,0xc7,0x07,0x87,0x07,0x87,0x07,0x87,0x03,0xce,0x01,
 0xfc,0x00};
