#define fiveG_width 11
#define fiveG_height 16
static unsigned char fiveG_bits[] = {
 0xf8,0x07,0xf8,0x03,0xfc,0x03,0x04,0x00,0x04,0x00,0x7c,0x00,0xfe,0x01,0xfe,
 0x03,0xf0,0x03,0x80,0x03,0x00,0x03,0x00,0x03,0x00,0x03,0x9e,0x01,0xff,0x00,
 0x7e,0x00};
