#define fourG_width 11
#define fourG_height 16
static unsigned char fourG_bits[] = {
 0x80,0x01,0xc0,0x01,0xe0,0x01,0xe0,0x01,0xf0,0x01,0xc8,0x01,0xcc,0x01,0xc4,
 0x01,0xc2,0x01,0xc3,0x01,0xff,0x07,0xff,0x07,0xff,0x07,0xc0,0x01,0xc0,0x01,
 0xc0,0x01};
