#define nineG_width 11
#define nineG_height 16
static unsigned char nineG_bits[] = {
 0xf8,0x00,0xdc,0x01,0x8e,0x03,0x8e,0x03,0x8f,0x07,0x8f,0x07,0x8e,0x07,0x8e,
 0x07,0x9e,0x07,0xf8,0x03,0xc0,0x03,0xc0,0x01,0xe0,0x01,0x70,0x00,0x3c,0x00,
 0x0f,0x00};
