#define oneG_width 11
#define oneG_height 16
static unsigned char oneG_bits[] = {
 0x70,0x00,0x7c,0x00,0x7e,0x00,0x78,0x00,0x78,0x00,0x78,0x00,0x78,0x00,0x78,
 0x00,0x78,0x00,0x78,0x00,0x78,0x00,0x78,0x00,0x78,0x00,0x78,0x00,0x78,0x00,
 0xfe,0x01};
