#define sevenG_width 11
#define sevenG_height 16
static unsigned char sevenG_bits[] = {
 0xfe,0x03,0xff,0x03,0xff,0x03,0x81,0x01,0x81,0x01,0xc0,0x01,0xc0,0x00,0xc0,
 0x00,0xe0,0x00,0x60,0x00,0x60,0x00,0x70,0x00,0x30,0x00,0x38,0x00,0x38,0x00,
 0x18,0x00};
