#define sixC2_width 162
#define sixC2_height 229
static unsigned char sixC2_bits[] = {
 0x00,0x00,0x00,0x00,0x00,0x00,0x00,0x00,0x00,0x00,0x00,0x00,0x00,0x00,0x00,
 0x00,0x00,0x00,0xff,0x00,0x00,0x00,0x00,0x00,0x00,0x00,0x00,0x00,0x00,0x00,
 0x00,0x00,0x00,0x00,0x00,0x00,0x00,0x00,0xfe,0xff,0x00,0x00,0x00,0x00,0x00,
 0x00,0x00,0x00,0x00,0x00,0x00,0x00,0x00,0x00,0x00,0x00,0x00,0x00,0xf8,0xff,
 0xff,0x00,0x00,0x00,0x00,0x00,0x00,0x00,0x00,0x00,0x00,0x00,0x00,0x00,0x00,
 0x00,0x00,0x00,0xc0,0xff,0xff,0xff,0x00,0x00,0x00,0x00,0x00,0x00,0x00,0x00,
 0x00,0x00,0x00,0x00,0x00,0x00,0x00,0x00,0x00,0xfe,0xff,0xff,0xff,0x00,0x00,
 0x00,0x00,0x00,0x00,0x00,0x00,0x00,0x00,0x00,0x00,0x00,0x00,0x00,0x00,0xe0,
 0xff,0xff,0xff,0xff,0x00,0x00,0x00,0x00,0x00,0x00,0x00,0x00,0x00,0x00,0x00,
 0x00,0x00,0x00,0x00,0x00,0xfe,0xff,0xff,0xff,0xff,0x00,0x00,0x00,0x00,0x00,
 0x00,0x00,0x00,0x00,0x00,0x00,0x00,0x00,0x00,0x00,0xc0,0xff,0xff,0xff,0xff,
 0xff,0x00,0x00,0x00,0x00,0x00,0x00,0x00,0x00,0x00,0x00,0x00,0x00,0x00,0x00,
 0x00,0xf8,0xff,0xff,0xff,0xff,0x1f,0x00,0x00,0x00,0x00,0x00,0x00,0x00,0x00,
 0x00,0x00,0x00,0x00,0x00,0x00,0x00,0xff,0xff,0xff,0xff,0xff,0x00,0x00,0x00,
 0x00,0x00,0x00,0x00,0x00,0x00,0x00,0x00,0x00,0x00,0x00,0x00,0xe0,0xff,0xff,
 0xff,0xff,0x0f,0x00,0x00,0x00,0x00,0x00,0x00,0x00,0x00,0x00,0x00,0x00,0x00,
 0x00,0x00,0x00,0xfc,0xff,0xff,0xff,0xff,0x01,0x00,0x00,0x00,0x00,0x00,0x00,
 0x00,0x00,0x00,0x00,0x00,0x00,0x00,0x00,0x80,0xff,0xff,0xff,0xff,0x3f,0x00,
 0x00,0x00,0x00,0x00,0x00,0x00,0x00,0x00,0x00,0x00,0x00,0x00,0x00,0x00,0xe0,
 0xff,0xff,0xff,0xff,0x07,0x00,0x00,0x00,0x00,0x00,0x00,0x00,0x00,0x00,0x00,
 0x00,0x00,0x00,0x00,0x00,0xf8,0xff,0xff,0xff,0xff,0x00,0x00,0x00,0x00,0x00,
 0x00,0x00,0x00,0x00,0x00,0x00,0x00,0x00,0x00,0x00,0x00,0xff,0xff,0xff,0xff,
 0x3f,0x00,0x00,0x00,0x00,0x00,0x00,0x00,0x00,0x00,0x00,0x00,0x00,0x00,0x00,
 0x00,0xc0,0xff,0xff,0xff,0xff,0x07,0x00,0x00,0x00,0x00,0x00,0x00,0x00,0x00,
 0x00,0x00,0x00,0x00,0x00,0x00,0x00,0xf0,0xff,0xff,0xff,0xff,0x01,0x00,0x00,
 0x00,0x00,0x00,0x00,0x00,0x00,0x00,0x00,0x00,0x00,0x00,0x00,0x00,0xfc,0xff,
 0xff,0xff,0x7f,0x00,0x00,0x00,0x00,0x00,0x00,0x00,0x00,0x00,0x00,0x00,0x00,
 0x00,0x00,0x00,0x00,0xff,0xff,0xff,0xff,0x1f,0x00,0x00,0x00,0x00,0x00,0x00,
 0x00,0x00,0x00,0x00,0x00,0x00,0x00,0x00,0x00,0xc0,0xff,0xff,0xff,0xff,0x0f,
 0x00,0x00,0x00,0x00,0x00,0x00,0x00,0x00,0x00,0x00,0x00,0x00,0x00,0x00,0x00,
 0xe0,0xff,0xff,0xff,0xff,0x03,0x00,0x00,0x00,0x00,0x00,0x00,0x00,0x00,0x00,
 0x00,0x00,0x00,0x00,0x00,0x00,0xf8,0xff,0xff,0xff,0xff,0x00,0x00,0x00,0x00,
 0x00,0x00,0x00,0x00,0x00,0x00,0x00,0x00,0x00,0x00,0x00,0x00,0xfe,0xff,0xff,
 0xff,0x7f,0x00,0x00,0x00,0x00,0x00,0x00,0x00,0x00,0x00,0x00,0x00,0x00,0x00,
 0x00,0x00,0x80,0xff,0xff,0xff,0xff,0x1f,0x00,0x00,0x00,0x00,0x00,0x00,0x00,
 0x00,0x00,0x00,0x00,0x00,0x00,0x00,0x00,0xc0,0xff,0xff,0xff,0xff,0x0f,0x00,
 0x00,0x00,0x00,0x00,0x00,0x00,0x00,0x00,0x00,0x00,0x00,0x00,0x00,0x00,0xf0,
 0xff,0xff,0xff,0xff,0x03,0x00,0x00,0x00,0x00,0x00,0x00,0x00,0x00,0x00,0x00,
 0x00,0x00,0x00,0x00,0x00,0xf8,0xff,0xff,0xff,0xff,0x01,0x00,0x00,0x00,0x00,
 0x00,0x00,0x00,0x00,0x00,0x00,0x00,0x00,0x00,0x00,0x00,0xfe,0xff,0xff,0xff,
 0x7f,0x00,0x00,0x00,0x00,0x00,0x00,0x00,0x00,0x00,0x00,0x00,0x00,0x00,0x00,
 0x00,0x00,0xff,0xff,0xff,0xff,0x3f,0x00,0x00,0x00,0x00,0x00,0x00,0x00,0x00,
 0x00,0x00,0x00,0x00,0x00,0x00,0x00,0xc0,0xff,0xff,0xff,0xff,0x1f,0x00,0x00,
 0x00,0x00,0x00,0x00,0x00,0x00,0x00,0x00,0x00,0x00,0x00,0x00,0x00,0xe0,0xff,
 0xff,0xff,0xff,0x0f,0x00,0x00,0x00,0x00,0x00,0x00,0x00,0x00,0x00,0x00,0x00,
 0x00,0x00,0x00,0x00,0xf0,0xff,0xff,0xff,0xff,0x07,0x00,0x00,0x00,0x00,0x00,
 0x00,0x00,0x00,0x00,0x00,0x00,0x00,0x00,0x00,0x00,0xfc,0xff,0xff,0xff,0xff,
 0x03,0x00,0x00,0x00,0x00,0x00,0x00,0x00,0x00,0x00,0x00,0x00,0x00,0x00,0x00,
 0x00,0xfe,0xff,0xff,0xff,0xff,0x00,0x00,0x00,0x00,0x00,0x00,0x00,0x00,0x00,
 0x00,0x00,0x00,0x00,0x00,0x00,0x00,0xff,0xff,0xff,0xff,0x7f,0x00,0x00,0x00,
 0x00,0x00,0x00,0x00,0x00,0x00,0x00,0x00,0x00,0x00,0x00,0x00,0xc0,0xff,0xff,
 0xff,0xff,0x3f,0x00,0x00,0x00,0x00,0x00,0x00,0x00,0x00,0x00,0x00,0x00,0x00,
 0x00,0x00,0x00,0xe0,0xff,0xff,0xff,0xff,0x1f,0x00,0x00,0x00,0x00,0x00,0x00,
 0x00,0x00,0x00,0x00,0x00,0x00,0x00,0x00,0x00,0xf0,0xff,0xff,0xff,0xff,0x0f,
 0x00,0x00,0x00,0x00,0x00,0x00,0x00,0x00,0x00,0x00,0x00,0x00,0x00,0x00,0x00,
 0xf8,0xff,0xff,0xff,0xff,0x0f,0x00,0x00,0x00,0x00,0x00,0x00,0x00,0x00,0x00,
 0x00,0x00,0x00,0x00,0x00,0x00,0xfc,0xff,0xff,0xff,0xff,0x07,0x00,0x00,0x00,
 0x00,0x00,0x00,0x00,0x00,0x00,0x00,0x00,0x00,0x00,0x00,0x00,0xfe,0xff,0xff,
 0xff,0xff,0x03,0x00,0x00,0x00,0x00,0x00,0x00,0x00,0x00,0x00,0x00,0x00,0x00,
 0x00,0x00,0x00,0xff,0xff,0xff,0xff,0xff,0x01,0x00,0x00,0x00,0x00,0x00,0x00,
 0x00,0x00,0x00,0x00,0x00,0x00,0x00,0x00,0x80,0xff,0xff,0xff,0xff,0xff,0x00,
 0x00,0x00,0x00,0x00,0x00,0x00,0x00,0x00,0x00,0x00,0x00,0x00,0x00,0x00,0xe0,
 0xff,0xff,0xff,0xff,0x7f,0x00,0x00,0x00,0x00,0x00,0x00,0x00,0x00,0x00,0x00,
 0x00,0x00,0x00,0x00,0x00,0xf0,0xff,0xff,0xff,0xff,0x3f,0x00,0x00,0x00,0x00,
 0x00,0x00,0x00,0x00,0x00,0x00,0x00,0x00,0x00,0x00,0x00,0xf8,0xff,0xff,0xff,
 0xff,0x3f,0x00,0x00,0x00,0x00,0x00,0x00,0x00,0x00,0x00,0x00,0x00,0x00,0x00,
 0x00,0x00,0xfc,0xff,0xff,0xff,0xff,0x1f,0x00,0x00,0x00,0x00,0x00,0x00,0x00,
 0x00,0x00,0x00,0x00,0x00,0x00,0x00,0x00,0xfe,0xff,0xff,0xff,0xff,0x0f,0x00,
 0x00,0x00,0x00,0x00,0x00,0x00,0x00,0x00,0x00,0x00,0x00,0x00,0x00,0x00,0xff,
 0xff,0xff,0xff,0xff,0x07,0x00,0x00,0x00,0x00,0x00,0x00,0x00,0x00,0x00,0x00,
 0x00,0x00,0x00,0x00,0x00,0xff,0xff,0xff,0xff,0xff,0x07,0x00,0x00,0x00,0x00,
 0x00,0x00,0x00,0x00,0x00,0x00,0x00,0x00,0x00,0x00,0x80,0xff,0xff,0xff,0xff,
 0xff,0x03,0x00,0x00,0x00,0x00,0x00,0x00,0x00,0x00,0x00,0x00,0x00,0x00,0x00,
 0x00,0xc0,0xff,0xff,0xff,0xff,0xff,0x01,0x00,0x00,0x00,0x00,0x00,0x00,0x00,
 0x00,0x00,0x00,0x00,0x00,0x00,0x00,0xe0,0xff,0xff,0xff,0xff,0xff,0x01,0x00,
 0x00,0x00,0x00,0x00,0x00,0x00,0x00,0x00,0x00,0x00,0x00,0x00,0x00,0xf0,0xff,
 0xff,0xff,0xff,0xff,0x00,0x00,0x00,0x00,0x00,0x00,0x00,0x00,0x00,0x00,0x00,
 0x00,0x00,0x00,0x00,0xf8,0xff,0xff,0xff,0xff,0x7f,0x00,0x00,0x00,0x00,0x00,
 0x00,0x00,0x00,0x00,0x00,0x00,0x00,0x00,0x00,0x00,0xfc,0xff,0xff,0xff,0xff,
 0x7f,0x00,0x00,0x00,0x00,0x00,0x00,0x00,0x00,0x00,0x00,0x00,0x00,0x00,0x00,
 0x00,0xfc,0xff,0xff,0xff,0xff,0x3f,0x00,0x00,0x00,0x00,0x00,0x00,0x00,0x00,
 0x00,0x00,0x00,0x00,0x00,0x00,0x00,0xfe,0xff,0xff,0xff,0xff,0x3f,0x00,0x00,
 0x00,0x00,0x00,0x00,0x00,0x00,0x00,0x00,0x00,0x00,0x00,0x00,0x00,0xff,0xff,
 0xff,0xff,0xff,0x1f,0x00,0x00,0x00,0x00,0x00,0x00,0x00,0x00,0x00,0x00,0x00,
 0x00,0x00,0x00,0x80,0xff,0xff,0xff,0xff,0xff,0x1f,0x00,0x00,0x00,0x00,0x00,
 0x00,0x00,0x00,0x00,0x00,0x00,0x00,0x00,0x00,0x80,0xff,0xff,0xff,0xff,0xff,
 0x0f,0x00,0x00,0x00,0x00,0x00,0x00,0x00,0x00,0x00,0x00,0x00,0x00,0x00,0x00,
 0xc0,0xff,0xff,0xff,0xff,0xff,0x0f,0x00,0x00,0x00,0x00,0x00,0x00,0x00,0x00,
 0x00,0x00,0x00,0x00,0x00,0x00,0xe0,0xff,0xff,0xff,0xff,0xff,0x07,0x00,0x00,
 0x00,0x00,0x00,0x00,0x00,0x00,0x00,0x00,0x00,0x00,0x00,0x00,0xf0,0xff,0xff,
 0xff,0xff,0xff,0x07,0x00,0x00,0x00,0x00,0x00,0x00,0x00,0x00,0x00,0x00,0x00,
 0x00,0x00,0x00,0xf0,0xff,0xff,0xff,0xff,0xff,0x03,0x00,0x00,0x00,0x00,0x00,
 0x00,0x00,0x00,0x00,0x00,0x00,0x00,0x00,0x00,0xf8,0xff,0xff,0xff,0xff,0xff,
 0x03,0x00,0x00,0x00,0x00,0x00,0x00,0x00,0x00,0x00,0x00,0x00,0x00,0x00,0x00,
 0xfc,0xff,0xff,0xff,0xff,0xff,0x01,0x00,0x00,0x00,0x00,0x00,0x00,0x00,0x00,
 0x00,0x00,0x00,0x00,0x00,0x00,0xfc,0xff,0xff,0xff,0xff,0xff,0x01,0x00,0x00,
 0x00,0x00,0x00,0x00,0x00,0x00,0x00,0x00,0x00,0x00,0x00,0x00,0xfe,0xff,0xff,
 0xff,0xff,0xff,0x00,0x00,0x00,0x00,0x00,0x00,0x00,0x00,0x00,0x00,0x00,0x00,
 0x00,0x00,0x00,0xfe,0xff,0xff,0xff,0xff,0xff,0x00,0x00,0x00,0x00,0x00,0x00,
 0x00,0x00,0x00,0x00,0x00,0x00,0x00,0x00,0x00,0xff,0xff,0xff,0xff,0xff,0x7f,
 0x00,0x00,0x00,0x00,0x00,0x00,0x00,0x00,0x00,0x00,0x00,0x00,0x00,0x00,0x80,
 0xff,0xff,0xff,0xff,0xff,0x7f,0x00,0x00,0x00,0x00,0x00,0x00,0x00,0x00,0x00,
 0x00,0x00,0x00,0x00,0x00,0x80,0xff,0xff,0xff,0xff,0xff,0x3f,0x00,0x00,0x00,
 0x00,0x00,0x00,0x00,0x00,0x00,0x00,0x00,0x00,0x00,0x00,0xc0,0xff,0xff,0xff,
 0xff,0xff,0x3f,0x00,0x00,0x00,0x00,0x00,0x00,0x00,0x00,0x00,0x00,0x00,0x00,
 0x00,0x00,0xc0,0xff,0xff,0xff,0xff,0xff,0x3f,0x00,0x00,0x00,0x00,0x00,0x00,
 0x00,0x00,0x00,0x00,0x00,0x00,0x00,0x00,0xe0,0xff,0xff,0xff,0xff,0xff,0x1f,
 0x00,0x00,0x00,0x00,0x00,0x00,0x00,0x00,0x00,0x00,0x00,0x00,0x00,0x00,0xe0,
 0xff,0xff,0xff,0xff,0xff,0x1f,0x00,0x00,0x00,0x00,0x00,0x00,0x00,0x00,0x00,
 0x00,0x00,0x00,0x00,0x00,0xf0,0xff,0xff,0xff,0xff,0xff,0x1f,0x00,0x00,0x00,
 0x00,0x00,0x00,0x00,0x00,0x00,0x00,0x00,0x00,0x00,0x00,0xf0,0xff,0xff,0xff,
 0xff,0xff,0x0f,0x00,0x00,0x00,0x00,0x00,0x00,0x00,0x00,0x00,0x00,0x00,0x00,
 0x00,0x00,0xf8,0xff,0xff,0xff,0xff,0xff,0x0f,0x00,0x00,0x00,0x00,0x00,0x00,
 0x00,0x00,0x00,0x00,0x00,0x00,0x00,0x00,0xf8,0xff,0xff,0xff,0xff,0xff,0x0f,
 0x00,0x00,0x00,0x00,0x00,0x00,0x00,0x00,0x00,0x00,0x00,0x00,0x00,0x00,0xfc,
 0xff,0xff,0xff,0xff,0xff,0x07,0x00,0x00,0x00,0x00,0x00,0x00,0x00,0x00,0x00,
 0x00,0x00,0x00,0x00,0x00,0xfc,0xff,0xff,0xff,0xff,0xff,0x07,0x00,0x00,0x00,
 0x00,0x00,0x00,0x00,0x00,0x00,0x00,0x00,0x00,0x00,0x00,0xfe,0xff,0xff,0xff,
 0xff,0xff,0x07,0x00,0x00,0x00,0x00,0x00,0x00,0x00,0x00,0x00,0x00,0x00,0x00,
 0x00,0x00,0xfe,0xff,0xff,0xff,0xff,0xff,0x03,0x00,0x00,0x00,0x00,0x00,0x00,
 0x00,0x00,0x00,0x00,0x00,0x00,0x00,0x00,0xfe,0xff,0xff,0xff,0xff,0xff,0x03,
 0x00,0x00,0x00,0x00,0x00,0x00,0x00,0x00,0x00,0x00,0x00,0x00,0x00,0x00,0xff,
 0xff,0xff,0xff,0xff,0xff,0x03,0x00,0xe0,0xff,0x3f,0x00,0x00,0x00,0x00,0x00,
 0x00,0x00,0x00,0x00,0x00,0xff,0xff,0xff,0xff,0xff,0xff,0x03,0x80,0xff,0xff,
 0xff,0x0f,0x00,0x00,0x00,0x00,0x00,0x00,0x00,0x00,0x80,0xff,0xff,0xff,0xff,
 0xff,0xff,0x01,0xfc,0xff,0xff,0xff,0xff,0x00,0x00,0x00,0x00,0x00,0x00,0x00,
 0x00,0x80,0xff,0xff,0xff,0xff,0xff,0xff,0x81,0xff,0xff,0xff,0xff,0xff,0x07,
 0x00,0x00,0x00,0x00,0x00,0x00,0x00,0x80,0xff,0xff,0xff,0xff,0xff,0xff,0xf3,
 0xff,0xff,0xff,0xff,0xff,0x1f,0x00,0x00,0x00,0x00,0x00,0x00,0x00,0xc0,0xff,
 0xff,0xff,0xff,0xff,0xff,0xff,0xff,0xff,0xff,0xff,0xff,0xff,0x00,0x00,0x00,
 0x00,0x00,0x00,0x00,0xc0,0xff,0xff,0xff,0xff,0xff,0xff,0xff,0xff,0xff,0xff,
 0xff,0xff,0xff,0x03,0x00,0x00,0x00,0x00,0x00,0x00,0xc0,0xff,0xff,0xff,0xff,
 0xff,0xff,0xff,0xff,0xff,0xff,0xff,0xff,0xff,0x0f,0x00,0x00,0x00,0x00,0x00,
 0x00,0xe0,0xff,0xff,0xff,0xff,0xff,0xff,0xff,0xff,0xff,0xff,0xff,0xff,0xff,
 0x1f,0x00,0x00,0x00,0x00,0x00,0x00,0xe0,0xff,0xff,0xff,0xff,0xff,0xff,0xff,
 0xff,0xff,0xff,0xff,0xff,0xff,0x7f,0x00,0x00,0x00,0x00,0x00,0x00,0xe0,0xff,
 0xff,0xff,0xff,0xff,0xff,0xff,0xff,0xff,0xff,0xff,0xff,0xff,0xff,0x01,0x00,
 0x00,0x00,0x00,0x00,0xf0,0xff,0xff,0xff,0xff,0xff,0xff,0xff,0xff,0xff,0xff,
 0xff,0xff,0xff,0xff,0x03,0x00,0x00,0x00,0x00,0x00,0xf0,0xff,0xff,0xff,0xff,
 0xff,0xff,0xff,0xff,0xff,0xff,0xff,0xff,0xff,0xff,0x07,0x00,0x00,0x00,0x00,
 0x00,0xf0,0xff,0xff,0xff,0xff,0xff,0xff,0xff,0xff,0xff,0xff,0xff,0xff,0xff,
 0xff,0x1f,0x00,0x00,0x00,0x00,0x00,0xf0,0xff,0xff,0xff,0xff,0xff,0xff,0xff,
 0xe1,0xff,0xff,0xff,0xff,0xff,0xff,0x3f,0x00,0x00,0x00,0x00,0x00,0xf8,0xff,
 0xff,0xff,0xff,0xff,0xff,0x07,0x00,0xf8,0xff,0xff,0xff,0xff,0xff,0x7f,0x00,
 0x00,0x00,0x00,0x00,0xf8,0xff,0xff,0xff,0xff,0xff,0xff,0x01,0x00,0xc0,0xff,
 0xff,0xff,0xff,0xff,0xff,0x00,0x00,0x00,0x00,0x00,0xf8,0xff,0xff,0xff,0xff,
 0xff,0xff,0x00,0x00,0x80,0xff,0xff,0xff,0xff,0xff,0xff,0x01,0x00,0x00,0x00,
 0x00,0xf8,0xff,0xff,0xff,0xff,0xff,0x7f,0x00,0x00,0x00,0xfe,0xff,0xff,0xff,
 0xff,0xff,0x03,0x00,0x00,0x00,0x00,0xfc,0xff,0xff,0xff,0xff,0xff,0x3f,0x00,
 0x00,0x00,0xfc,0xff,0xff,0xff,0xff,0xff,0x07,0x00,0x00,0x00,0x00,0xfc,0xff,
 0xff,0xff,0xff,0xff,0x3f,0x00,0x00,0x00,0xf8,0xff,0xff,0xff,0xff,0xff,0x0f,
 0x00,0x00,0x00,0x00,0xfc,0xff,0xff,0xff,0xff,0xff,0x1f,0x00,0x00,0x00,0xf0,
 0xff,0xff,0xff,0xff,0xff,0x1f,0x00,0x00,0x00,0x00,0xfc,0xff,0xff,0xff,0xff,
 0xff,0x1f,0x00,0x00,0x00,0xe0,0xff,0xff,0xff,0xff,0xff,0x3f,0x00,0x00,0x00,
 0x00,0xfc,0xff,0xff,0xff,0xff,0xff,0x1f,0x00,0x00,0x00,0xc0,0xff,0xff,0xff,
 0xff,0xff,0x3f,0x00,0x00,0x00,0x00,0xfc,0xff,0xff,0xff,0xff,0xff,0x0f,0x00,
 0x00,0x00,0x80,0xff,0xff,0xff,0xff,0xff,0x7f,0x00,0x00,0x00,0x00,0xfe,0xff,
 0xff,0xff,0xff,0xff,0x0f,0x00,0x00,0x00,0x80,0xff,0xff,0xff,0xff,0xff,0xff,
 0x00,0x00,0x00,0x00,0xfe,0xff,0xff,0xff,0xff,0xff,0x0f,0x00,0x00,0x00,0x00,
 0xff,0xff,0xff,0xff,0xff,0xff,0x00,0x00,0x00,0x00,0xfe,0xff,0xff,0xff,0xff,
 0xff,0x0f,0x00,0x00,0x00,0x00,0xff,0xff,0xff,0xff,0xff,0xff,0x01,0x00,0x00,
 0x00,0xfe,0xff,0xff,0xff,0xff,0xff,0x0f,0x00,0x00,0x00,0x00,0xfe,0xff,0xff,
 0xff,0xff,0xff,0x01,0x00,0x00,0x00,0xfe,0xff,0xff,0xff,0xff,0xff,0x0f,0x00,
 0x00,0x00,0x00,0xfe,0xff,0xff,0xff,0xff,0xff,0x03,0x00,0x00,0x00,0xfe,0xff,
 0xff,0xff,0xff,0xff,0x0f,0x00,0x00,0x00,0x00,0xfc,0xff,0xff,0xff,0xff,0xff,
 0x07,0x00,0x00,0x00,0xff,0xff,0xff,0xff,0xff,0xff,0x0f,0x00,0x00,0x00,0x00,
 0xfc,0xff,0xff,0xff,0xff,0xff,0x07,0x00,0x00,0x00,0xff,0xff,0xff,0xff,0xff,
 0xff,0x07,0x00,0x00,0x00,0x00,0xf8,0xff,0xff,0xff,0xff,0xff,0x07,0x00,0x00,
 0x00,0xff,0xff,0xff,0xff,0xff,0xff,0x07,0x00,0x00,0x00,0x00,0xf8,0xff,0xff,
 0xff,0xff,0xff,0x0f,0x00,0x00,0x00,0xff,0xff,0xff,0xff,0xff,0xff,0x07,0x00,
 0x00,0x00,0x00,0xf8,0xff,0xff,0xff,0xff,0xff,0x0f,0x00,0x00,0x00,0xff,0xff,
 0xff,0xff,0xff,0xff,0x07,0x00,0x00,0x00,0x00,0xf0,0xff,0xff,0xff,0xff,0xff,
 0x1f,0x00,0x00,0x00,0xff,0xff,0xff,0xff,0xff,0xff,0x07,0x00,0x00,0x00,0x00,
 0xf0,0xff,0xff,0xff,0xff,0xff,0x1f,0x00,0x00,0x00,0xff,0xff,0xff,0xff,0xff,
 0xff,0x07,0x00,0x00,0x00,0x00,0xf0,0xff,0xff,0xff,0xff,0xff,0x1f,0x00,0x00,
 0x00,0xff,0xff,0xff,0xff,0xff,0xff,0x07,0x00,0x00,0x00,0x00,0xf0,0xff,0xff,
 0xff,0xff,0xff,0x3f,0x00,0x00,0x00,0xff,0xff,0xff,0xff,0xff,0xff,0x07,0x00,
 0x00,0x00,0x00,0xe0,0xff,0xff,0xff,0xff,0xff,0x3f,0x00,0x00,0x00,0xff,0xff,
 0xff,0xff,0xff,0xff,0x07,0x00,0x00,0x00,0x00,0xe0,0xff,0xff,0xff,0xff,0xff,
 0x3f,0x00,0x00,0x00,0xff,0xff,0xff,0xff,0xff,0xff,0x07,0x00,0x00,0x00,0x00,
 0xe0,0xff,0xff,0xff,0xff,0xff,0x7f,0x00,0x00,0x00,0xff,0xff,0xff,0xff,0xff,
 0xff,0x07,0x00,0x00,0x00,0x00,0xe0,0xff,0xff,0xff,0xff,0xff,0x7f,0x00,0x00,
 0x00,0xff,0xff,0xff,0xff,0xff,0xff,0x07,0x00,0x00,0x00,0x00,0xe0,0xff,0xff,
 0xff,0xff,0xff,0x7f,0x00,0x00,0x80,0xff,0xff,0xff,0xff,0xff,0xff,0x07,0x00,
 0x00,0x00,0x00,0xc0,0xff,0xff,0xff,0xff,0xff,0x7f,0x00,0x00,0x80,0xff,0xff,
 0xff,0xff,0xff,0xff,0x07,0x00,0x00,0x00,0x00,0xc0,0xff,0xff,0xff,0xff,0xff,
 0xff,0x00,0x00,0x80,0xff,0xff,0xff,0xff,0xff,0xff,0x07,0x00,0x00,0x00,0x00,
 0xc0,0xff,0xff,0xff,0xff,0xff,0xff,0x00,0x00,0x80,0xff,0xff,0xff,0xff,0xff,
 0xff,0x07,0x00,0x00,0x00,0x00,0xc0,0xff,0xff,0xff,0xff,0xff,0xff,0x00,0x00,
 0x80,0xff,0xff,0xff,0xff,0xff,0xff,0x07,0x00,0x00,0x00,0x00,0xc0,0xff,0xff,
 0xff,0xff,0xff,0xff,0x00,0x00,0x80,0xff,0xff,0xff,0xff,0xff,0xff,0x07,0x00,
 0x00,0x00,0x00,0xc0,0xff,0xff,0xff,0xff,0xff,0xff,0x00,0x00,0x80,0xff,0xff,
 0xff,0xff,0xff,0xff,0x07,0x00,0x00,0x00,0x00,0xc0,0xff,0xff,0xff,0xff,0xff,
 0xff,0x01,0x00,0x80,0xff,0xff,0xff,0xff,0xff,0xff,0x07,0x00,0x00,0x00,0x00,
 0x80,0xff,0xff,0xff,0xff,0xff,0xff,0x01,0x00,0x80,0xff,0xff,0xff,0xff,0xff,
 0xff,0x07,0x00,0x00,0x00,0x00,0x80,0xff,0xff,0xff,0xff,0xff,0xff,0x01,0x00,
 0x80,0xff,0xff,0xff,0xff,0xff,0xff,0x07,0x00,0x00,0x00,0x00,0x80,0xff,0xff,
 0xff,0xff,0xff,0xff,0x01,0x00,0x80,0xff,0xff,0xff,0xff,0xff,0xff,0x07,0x00,
 0x00,0x00,0x00,0x80,0xff,0xff,0xff,0xff,0xff,0xff,0x01,0x00,0x00,0xff,0xff,
 0xff,0xff,0xff,0xff,0x07,0x00,0x00,0x00,0x00,0x80,0xff,0xff,0xff,0xff,0xff,
 0xff,0x01,0x00,0x00,0xff,0xff,0xff,0xff,0xff,0xff,0x07,0x00,0x00,0x00,0x00,
 0x80,0xff,0xff,0xff,0xff,0xff,0xff,0x01,0x00,0x00,0xff,0xff,0xff,0xff,0xff,
 0xff,0x07,0x00,0x00,0x00,0x00,0x80,0xff,0xff,0xff,0xff,0xff,0xff,0x01,0x00,
 0x00,0xff,0xff,0xff,0xff,0xff,0xff,0x07,0x00,0x00,0x00,0x00,0x80,0xff,0xff,
 0xff,0xff,0xff,0xff,0x01,0x00,0x00,0xff,0xff,0xff,0xff,0xff,0xff,0x07,0x00,
 0x00,0x00,0x00,0x80,0xff,0xff,0xff,0xff,0xff,0xff,0x01,0x00,0x00,0xff,0xff,
 0xff,0xff,0xff,0xff,0x07,0x00,0x00,0x00,0x00,0x80,0xff,0xff,0xff,0xff,0xff,
 0xff,0x01,0x00,0x00,0xff,0xff,0xff,0xff,0xff,0xff,0x07,0x00,0x00,0x00,0x00,
 0x80,0xff,0xff,0xff,0xff,0xff,0xff,0x03,0x00,0x00,0xff,0xff,0xff,0xff,0xff,
 0xff,0x07,0x00,0x00,0x00,0x00,0x00,0xff,0xff,0xff,0xff,0xff,0xff,0x03,0x00,
 0x00,0xff,0xff,0xff,0xff,0xff,0xff,0x07,0x00,0x00,0x00,0x00,0x00,0xff,0xff,
 0xff,0xff,0xff,0xff,0x03,0x00,0x00,0xff,0xff,0xff,0xff,0xff,0xff,0x07,0x00,
 0x00,0x00,0x00,0x00,0xff,0xff,0xff,0xff,0xff,0xff,0x03,0x00,0x00,0xff,0xff,
 0xff,0xff,0xff,0xff,0x07,0x00,0x00,0x00,0x00,0x00,0xff,0xff,0xff,0xff,0xff,
 0xff,0x03,0x00,0x00,0xff,0xff,0xff,0xff,0xff,0xff,0x07,0x00,0x00,0x00,0x00,
 0x00,0xff,0xff,0xff,0xff,0xff,0xff,0x03,0x00,0x00,0xff,0xff,0xff,0xff,0xff,
 0xff,0x07,0x00,0x00,0x00,0x00,0x00,0xff,0xff,0xff,0xff,0xff,0xff,0x03,0x00,
 0x00,0xfe,0xff,0xff,0xff,0xff,0xff,0x07,0x00,0x00,0x00,0x00,0x00,0xff,0xff,
 0xff,0xff,0xff,0xff,0x03,0x00,0x00,0xfe,0xff,0xff,0xff,0xff,0xff,0x07,0x00,
 0x00,0x00,0x00,0x00,0xff,0xff,0xff,0xff,0xff,0xff,0x03,0x00,0x00,0xfe,0xff,
 0xff,0xff,0xff,0xff,0x07,0x00,0x00,0x00,0x00,0x00,0xff,0xff,0xff,0xff,0xff,
 0xff,0x01,0x00,0x00,0xfe,0xff,0xff,0xff,0xff,0xff,0x07,0x00,0x00,0x00,0x00,
 0x00,0xff,0xff,0xff,0xff,0xff,0xff,0x01,0x00,0x00,0xfe,0xff,0xff,0xff,0xff,
 0xff,0x07,0x00,0x00,0x00,0x00,0x00,0xff,0xff,0xff,0xff,0xff,0xff,0x01,0x00,
 0x00,0xfe,0xff,0xff,0xff,0xff,0xff,0x07,0x00,0x00,0x00,0x00,0x00,0xff,0xff,
 0xff,0xff,0xff,0xff,0x01,0x00,0x00,0xfe,0xff,0xff,0xff,0xff,0xff,0x07,0x00,
 0x00,0x00,0x00,0x00,0xff,0xff,0xff,0xff,0xff,0xff,0x01,0x00,0x00,0xfc,0xff,
 0xff,0xff,0xff,0xff,0x07,0x00,0x00,0x00,0x00,0x00,0xff,0xff,0xff,0xff,0xff,
 0xff,0x01,0x00,0x00,0xfc,0xff,0xff,0xff,0xff,0xff,0x07,0x00,0x00,0x00,0x00,
 0x00,0xff,0xff,0xff,0xff,0xff,0xff,0x01,0x00,0x00,0xfc,0xff,0xff,0xff,0xff,
 0xff,0x07,0x00,0x00,0x00,0x00,0x00,0xff,0xff,0xff,0xff,0xff,0xff,0x01,0x00,
 0x00,0xfc,0xff,0xff,0xff,0xff,0xff,0x07,0x00,0x00,0x00,0x00,0x00,0xff,0xff,
 0xff,0xff,0xff,0xff,0x01,0x00,0x00,0xfc,0xff,0xff,0xff,0xff,0xff,0x07,0x00,
 0x00,0x00,0x00,0x00,0xff,0xff,0xff,0xff,0xff,0xff,0x01,0x00,0x00,0xf8,0xff,
 0xff,0xff,0xff,0xff,0x07,0x00,0x00,0x00,0x00,0x00,0xff,0xff,0xff,0xff,0xff,
 0xff,0x01,0x00,0x00,0xf8,0xff,0xff,0xff,0xff,0xff,0x07,0x00,0x00,0x00,0x00,
 0x00,0xff,0xff,0xff,0xff,0xff,0xff,0x00,0x00,0x00,0xf8,0xff,0xff,0xff,0xff,
 0xff,0x07,0x00,0x00,0x00,0x00,0x00,0xff,0xff,0xff,0xff,0xff,0xff,0x00,0x00,
 0x00,0xf8,0xff,0xff,0xff,0xff,0xff,0x07,0x00,0x00,0x00,0x00,0x00,0xff,0xff,
 0xff,0xff,0xff,0xff,0x00,0x00,0x00,0xf0,0xff,0xff,0xff,0xff,0xff,0x07,0x00,
 0x00,0x00,0x00,0x00,0xff,0xff,0xff,0xff,0xff,0xff,0x00,0x00,0x00,0xf0,0xff,
 0xff,0xff,0xff,0xff,0x07,0x00,0x00,0x00,0x00,0x00,0xff,0xff,0xff,0xff,0xff,
 0xff,0x00,0x00,0x00,0xf0,0xff,0xff,0xff,0xff,0xff,0x07,0x00,0x00,0x00,0x00,
 0x00,0xff,0xff,0xff,0xff,0xff,0xff,0x00,0x00,0x00,0xe0,0xff,0xff,0xff,0xff,
 0xff,0x07,0x00,0x00,0x00,0x00,0x00,0xff,0xff,0xff,0xff,0xff,0x7f,0x00,0x00,
 0x00,0xe0,0xff,0xff,0xff,0xff,0xff,0x07,0x00,0x00,0x00,0x00,0x00,0xff,0xff,
 0xff,0xff,0xff,0x7f,0x00,0x00,0x00,0xe0,0xff,0xff,0xff,0xff,0xff,0x0f,0x00,
 0x00,0x00,0x00,0x00,0xff,0xff,0xff,0xff,0xff,0x7f,0x00,0x00,0x00,0xc0,0xff,
 0xff,0xff,0xff,0xff,0x0f,0x00,0x00,0x00,0x00,0x00,0xff,0xff,0xff,0xff,0xff,
 0x7f,0x00,0x00,0x00,0xc0,0xff,0xff,0xff,0xff,0xff,0x0f,0x00,0x00,0x00,0x00,
 0x00,0xff,0xff,0xff,0xff,0xff,0x3f,0x00,0x00,0x00,0xc0,0xff,0xff,0xff,0xff,
 0xff,0x0f,0x00,0x00,0x00,0x00,0x00,0xff,0xff,0xff,0xff,0xff,0x3f,0x00,0x00,
 0x00,0x80,0xff,0xff,0xff,0xff,0xff,0x0f,0x00,0x00,0x00,0x00,0x00,0xff,0xff,
 0xff,0xff,0xff,0x3f,0x00,0x00,0x00,0x80,0xff,0xff,0xff,0xff,0xff,0x0f,0x00,
 0x00,0x00,0x00,0x00,0xff,0xff,0xff,0xff,0xff,0x3f,0x00,0x00,0x00,0x00,0xff,
 0xff,0xff,0xff,0xff,0x0f,0x00,0x00,0x00,0x00,0x00,0xff,0xff,0xff,0xff,0xff,
 0x1f,0x00,0x00,0x00,0x00,0xff,0xff,0xff,0xff,0xff,0x0f,0x00,0x00,0x00,0x00,
 0x00,0xff,0xff,0xff,0xff,0xff,0x1f,0x00,0x00,0x00,0x00,0xff,0xff,0xff,0xff,
 0xff,0x0f,0x00,0x00,0x00,0x00,0x00,0xff,0xff,0xff,0xff,0xff,0x1f,0x00,0x00,
 0x00,0x00,0xfe,0xff,0xff,0xff,0xff,0x0f,0x00,0x00,0x00,0x00,0x00,0xff,0xff,
 0xff,0xff,0xff,0x0f,0x00,0x00,0x00,0x00,0xfe,0xff,0xff,0xff,0xff,0x1f,0x00,
 0x00,0x00,0x00,0x00,0xff,0xff,0xff,0xff,0xff,0x0f,0x00,0x00,0x00,0x00,0xfc,
 0xff,0xff,0xff,0xff,0x1f,0x00,0x00,0x00,0x00,0x00,0xff,0xff,0xff,0xff,0xff,
 0x07,0x00,0x00,0x00,0x00,0xfc,0xff,0xff,0xff,0xff,0x1f,0x00,0x00,0x00,0x00,
 0x00,0xff,0xff,0xff,0xff,0xff,0x07,0x00,0x00,0x00,0x00,0xf8,0xff,0xff,0xff,
 0xff,0x1f,0x00,0x00,0x00,0x00,0x00,0xff,0xff,0xff,0xff,0xff,0x07,0x00,0x00,
 0x00,0x00,0xf8,0xff,0xff,0xff,0xff,0x1f,0x00,0x00,0x00,0x00,0x00,0xff,0xff,
 0xff,0xff,0xff,0x03,0x00,0x00,0x00,0x00,0xf0,0xff,0xff,0xff,0xff,0x1f,0x00,
 0x00,0x00,0x00,0x00,0xff,0xff,0xff,0xff,0xff,0x03,0x00,0x00,0x00,0x00,0xe0,
 0xff,0xff,0xff,0xff,0x3f,0x00,0x00,0x00,0x00,0x00,0xff,0xff,0xff,0xff,0xff,
 0x01,0x00,0x00,0x00,0x00,0xe0,0xff,0xff,0xff,0xff,0x3f,0x00,0x00,0x00,0x00,
 0x80,0xff,0xff,0xff,0xff,0xff,0x01,0x00,0x00,0x00,0x00,0xc0,0xff,0xff,0xff,
 0xff,0x3f,0x00,0x00,0x00,0x00,0x80,0xff,0xff,0xff,0xff,0xff,0x00,0x00,0x00,
 0x00,0x00,0xc0,0xff,0xff,0xff,0xff,0x3f,0x00,0x00,0x00,0x00,0x80,0xff,0xff,
 0xff,0xff,0x7f,0x00,0x00,0x00,0x00,0x00,0x80,0xff,0xff,0xff,0xff,0x3f,0x00,
 0x00,0x00,0x00,0x80,0xff,0xff,0xff,0xff,0x7f,0x00,0x00,0x00,0x00,0x00,0x00,
 0xff,0xff,0xff,0xff,0x7f,0x00,0x00,0x00,0x00,0x80,0xff,0xff,0xff,0xff,0x3f,
 0x00,0x00,0x00,0x00,0x00,0x00,0xff,0xff,0xff,0xff,0x7f,0x00,0x00,0x00,0x00,
 0x80,0xff,0xff,0xff,0xff,0x3f,0x00,0x00,0x00,0x00,0x00,0x00,0xfe,0xff,0xff,
 0xff,0x7f,0x00,0x00,0x00,0x00,0x80,0xff,0xff,0xff,0xff,0x1f,0x00,0x00,0x00,
 0x00,0x00,0x00,0xfc,0xff,0xff,0xff,0x7f,0x00,0x00,0x00,0x00,0x80,0xff,0xff,
 0xff,0xff,0x0f,0x00,0x00,0x00,0x00,0x00,0x00,0xf8,0xff,0xff,0xff,0xff,0x00,
 0x00,0x00,0x00,0x80,0xff,0xff,0xff,0xff,0x07,0x00,0x00,0x00,0x00,0x00,0x00,
 0xf8,0xff,0xff,0xff,0xff,0x00,0x00,0x00,0x00,0xc0,0xff,0xff,0xff,0xff,0x07,
 0x00,0x00,0x00,0x00,0x00,0x00,0xf0,0xff,0xff,0xff,0xff,0x00,0x00,0x00,0x00,
 0xc0,0xff,0xff,0xff,0xff,0x03,0x00,0x00,0x00,0x00,0x00,0x00,0xe0,0xff,0xff,
 0xff,0xff,0x01,0x00,0x00,0x00,0xc0,0xff,0xff,0xff,0xff,0x01,0x00,0x00,0x00,
 0x00,0x00,0x00,0xc0,0xff,0xff,0xff,0xff,0x01,0x00,0x00,0x00,0xc0,0xff,0xff,
 0xff,0xff,0x00,0x00,0x00,0x00,0x00,0x00,0x00,0x80,0xff,0xff,0xff,0xff,0x03,
 0x00,0x00,0x00,0xc0,0xff,0xff,0xff,0x7f,0x00,0x00,0x00,0x00,0x00,0x00,0x00,
 0x00,0xff,0xff,0xff,0xff,0x03,0x00,0x00,0x00,0xe0,0xff,0xff,0xff,0x3f,0x00,
 0x00,0x00,0x00,0x00,0x00,0x00,0x00,0xfe,0xff,0xff,0xff,0x03,0x00,0x00,0x00,
 0xe0,0xff,0xff,0xff,0x1f,0x00,0x00,0x00,0x00,0x00,0x00,0x00,0x00,0xfc,0xff,
 0xff,0xff,0x07,0x00,0x00,0x00,0xf0,0xff,0xff,0xff,0x0f,0x00,0x00,0x00,0x00,
 0x00,0x00,0x00,0x00,0xf8,0xff,0xff,0xff,0x07,0x00,0x00,0x00,0xf0,0xff,0xff,
 0xff,0x07,0x00,0x00,0x00,0x00,0x00,0x00,0x00,0x00,0xf0,0xff,0xff,0xff,0x0f,
 0x00,0x00,0x00,0xf8,0xff,0xff,0xff,0x03,0x00,0x00,0x00,0x00,0x00,0x00,0x00,
 0x00,0xe0,0xff,0xff,0xff,0x1f,0x00,0x00,0x00,0xf8,0xff,0xff,0xff,0x01,0x00,
 0x00,0x00,0x00,0x00,0x00,0x00,0x00,0xc0,0xff,0xff,0xff,0x1f,0x00,0x00,0x00,
 0xfc,0xff,0xff,0xff,0x00,0x00,0x00,0x00,0x00,0x00,0x00,0x00,0x00,0x00,0xff,
 0xff,0xff,0x3f,0x00,0x00,0x00,0xfe,0xff,0xff,0x3f,0x00,0x00,0x00,0x00,0x00,
 0x00,0x00,0x00,0x00,0x00,0xfe,0xff,0xff,0x7f,0x00,0x00,0x00,0xff,0xff,0xff,
 0x1f,0x00,0x00,0x00,0x00,0x00,0x00,0x00,0x00,0x00,0x00,0xfc,0xff,0xff,0xff,
 0x00,0x00,0x80,0xff,0xff,0xff,0x0f,0x00,0x00,0x00,0x00,0x00,0x00,0x00,0x00,
 0x00,0x00,0xf0,0xff,0xff,0xff,0x01,0x00,0xc0,0xff,0xff,0xff,0x03,0x00,0x00,
 0x00,0x00,0x00,0x00,0x00,0x00,0x00,0x00,0xe0,0xff,0xff,0xff,0x07,0x00,0xf0,
 0xff,0xff,0xff,0x00,0x00,0x00,0x00,0x00,0x00,0x00,0x00,0x00,0x00,0x00,0x80,
 0xff,0xff,0xff,0x1f,0x00,0xfc,0xff,0xff,0x7f,0x00,0x00,0x00,0x00,0x00,0x00,
 0x00,0x00,0x00,0x00,0x00,0x00,0xff,0xff,0xff,0xff,0xff,0xff,0xff,0xff,0x1f,
 0x00,0x00,0x00,0x00,0x00,0x00,0x00,0x00,0x00,0x00,0x00,0x00,0xfc,0xff,0xff,
 0xff,0xff,0xff,0xff,0xff,0x07,0x00,0x00,0x00,0x00,0x00,0x00,0x00,0x00,0x00,
 0x00,0x00,0x00,0xf0,0xff,0xff,0xff,0xff,0xff,0xff,0xff,0x01,0x00,0x00,0x00,
 0x00,0x00,0x00,0x00,0x00,0x00,0x00,0x00,0x00,0xc0,0xff,0xff,0xff,0xff,0xff,
 0xff,0x7f,0x00,0x00,0x00,0x00,0x00,0x00,0x00,0x00,0x00,0x00,0x00,0x00,0x00,
 0x00,0xfe,0xff,0xff,0xff,0xff,0xff,0x1f,0x00,0x00,0x00,0x00,0x00,0x00,0x00,
 0x00,0x00,0x00,0x00,0x00,0x00,0x00,0xf8,0xff,0xff,0xff,0xff,0xff,0x03,0x00,
 0x00,0x00,0x00,0x00,0x00,0x00,0x00,0x00,0x00,0x00,0x00,0x00,0x00,0xc0,0xff,
 0xff,0xff,0xff,0x7f,0x00,0x00,0x00,0x00,0x00,0x00,0x00,0x00,0x00,0x00,0x00,
 0x00,0x00,0x00,0x00,0x00,0xfc,0xff,0xff,0xff,0x07,0x00,0x00,0x00,0x00,0x00,
 0x00,0x00,0x00,0x00,0x00,0x00,0x00,0x00,0x00,0x00,0x00,0x80,0xff,0xff,0x3f,
 0x00,0x00,0x00,0x00,0x00,0x00,0x00,0x00,0x00};
