#define sixG_width 11
#define sixG_height 16
static unsigned char sixG_bits[] = {
 0x80,0x03,0xf0,0x01,0x38,0x00,0x1c,0x00,0x1e,0x00,0x0e,0x00,0xff,0x00,0xcf,
 0x01,0xcf,0x03,0xcf,0x03,0xcf,0x03,0xcf,0x03,0xcf,0x03,0xce,0x01,0xce,0x01,
 0x78,0x00};
