#define threeG_width 11
#define threeG_height 16
static unsigned char threeG_bits[] = {
 0xf8,0x00,0xfc,0x01,0xe6,0x03,0xc2,0x03,0xc0,0x01,0xc0,0x01,0xe0,0x00,0xf8,
 0x01,0xe0,0x03,0xc0,0x07,0x80,0x07,0x00,0x07,0x00,0x07,0x87,0x03,0xcf,0x00,
 0x7e,0x00};
