#define twoG_width 11
#define twoG_height 16
static unsigned char twoG_bits[] = {
 0xf8,0x00,0xfc,0x01,0xfe,0x01,0xe2,0x03,0xc3,0x03,0xc0,0x01,0xc0,0x01,0xc0,
 0x01,0xe0,0x00,0x60,0x00,0x30,0x00,0x18,0x02,0x0c,0x02,0xfc,0x03,0xfe,0x03,
 0xff,0x03};
