#define zeroG_width 11
#define zeroG_height 16
static unsigned char zeroG_bits[] = {
 0x78,0x00,0xcc,0x00,0xce,0x01,0xcf,0x01,0x87,0x03,0x87,0x03,0x87,0x03,0x87,
 0x03,0x87,0x03,0x87,0x03,0x87,0x03,0x87,0x03,0xcf,0x01,0xce,0x01,0xcc,0x00,
 0x78,0x00};
